<svg id="svg" version="1.1" xmlns="http://www.w3.org/2000/svg" xmlns:xlink="http://www.w3.org/1999/xlink" width="400" height="215" viewBox="0, 0, 400,215"><g id="svgg"><path id="path0" d="M4.479 73.231 C 3.041 74.015,2.796 75.246,2.796 81.659 L 2.796 87.431 3.429 88.124 C 3.777 88.505,4.212 88.817,4.396 88.817 C 4.581 88.817,4.731 88.914,4.731 89.032 C 4.731 89.312,10.475 89.323,10.573 89.043 C 10.746 88.552,20.216 88.669,20.215 89.163 C 20.215 89.412,20.120 90.864,20.004 92.389 C 19.889 93.914,19.691 99.177,19.566 104.086 C 19.441 108.995,19.298 113.688,19.248 114.516 C 19.199 115.344,19.053 119.312,18.924 123.333 C 18.794 127.355,18.601 131.129,18.493 131.720 C 18.385 132.312,18.181 135.171,18.040 138.073 C 17.653 146.029,16.989 145.484,27.059 145.484 C 34.496 145.484,34.518 145.483,35.210 144.989 C 36.255 144.243,36.290 143.867,36.454 131.398 C 36.538 125.070,36.637 119.409,36.675 118.817 C 36.997 113.821,37.446 104.109,37.660 97.527 C 37.802 93.151,37.927 89.363,37.938 89.111 C 37.958 88.623,48.605 88.572,49.129 89.058 C 49.241 89.162,50.152 89.247,51.154 89.247 C 53.944 89.247,54.500 88.913,55.451 86.667 C 55.586 86.348,55.705 83.789,55.742 80.382 L 55.806 74.634 54.996 73.823 L 54.186 73.011 29.620 72.964 C 8.436 72.924,4.975 72.961,4.479 73.231 M103.195 73.430 C 102.057 74.203,102.090 73.924,101.904 84.624 C 101.809 90.065,101.638 96.210,101.524 98.280 C 101.410 100.349,101.161 106.495,100.972 111.935 C 100.618 122.133,100.147 131.530,99.793 135.484 C 99.155 142.592,99.393 144.480,101.024 145.273 C 103.057 146.261,134.787 145.420,137.097 144.316 C 137.333 144.203,138.318 143.918,139.284 143.683 C 141.843 143.060,145.385 141.210,147.126 139.589 C 147.391 139.342,147.689 139.140,147.787 139.140 C 148.033 139.140,150.761 136.376,151.527 135.351 C 151.870 134.892,152.320 134.390,152.527 134.235 C 152.734 134.081,152.903 133.853,152.903 133.728 C 152.903 133.604,153.181 133.150,153.521 132.719 C 154.754 131.155,157.368 125.630,157.961 123.333 C 158.175 122.505,158.421 121.731,158.508 121.613 C 158.713 121.333,159.524 117.248,159.704 115.591 C 159.781 114.882,159.951 114.165,160.083 113.999 C 160.444 113.544,160.417 99.255,160.054 98.893 C 159.906 98.745,159.785 98.361,159.785 98.039 C 159.785 97.237,158.733 92.011,158.515 91.731 C 158.418 91.607,158.122 90.781,157.858 89.895 C 157.593 89.010,157.194 88.029,156.971 87.716 C 156.747 87.402,156.364 86.677,156.118 86.104 C 155.873 85.531,155.605 85.012,155.524 84.951 C 155.443 84.889,155.166 84.455,154.908 83.986 C 153.255 80.974,148.543 76.620,145.904 75.666 C 145.496 75.518,145.161 75.334,145.161 75.257 C 145.161 75.111,142.607 74.331,141.290 74.075 C 140.876 73.995,140.441 73.855,140.323 73.764 C 139.382 73.045,136.035 72.903,119.970 72.903 L 103.971 72.903 103.195 73.430 M254.301 73.257 C 252.721 74.055,252.820 73.188,252.581 88.316 C 252.462 95.788,252.293 101.973,252.204 102.061 C 252.116 102.150,252.043 103.189,252.043 104.371 C 252.043 111.168,251.216 129.921,250.743 133.871 C 250.629 134.817,250.447 137.213,250.337 139.194 C 249.981 145.627,249.940 145.596,258.992 145.581 C 267.802 145.567,267.495 145.809,267.515 138.849 C 267.522 136.619,267.622 133.426,267.738 131.752 C 267.854 130.079,268.050 126.677,268.174 124.194 C 268.421 119.266,268.918 114.335,269.237 113.656 C 269.348 113.419,269.633 112.514,269.871 111.643 C 270.584 109.030,272.367 106.756,274.622 105.584 C 276.340 104.691,280.986 105.206,282.066 106.409 C 283.566 108.078,283.765 108.949,283.747 113.763 C 283.725 119.538,283.247 131.387,283.015 131.935 C 282.914 132.172,282.704 134.543,282.549 137.204 C 282.026 146.141,281.352 145.459,290.793 145.549 C 300.224 145.639,299.785 145.932,299.785 139.535 C 299.785 137.422,299.874 135.525,299.983 135.320 C 300.253 134.812,301.169 107.807,301.009 105.080 C 300.883 102.928,300.321 99.664,300.004 99.247 C 299.915 99.129,299.717 98.645,299.565 98.172 C 299.003 96.419,297.204 94.149,294.780 92.135 C 294.571 91.961,293.845 91.555,293.167 91.232 C 292.490 90.909,291.887 90.590,291.828 90.523 C 291.606 90.270,289.951 89.733,288.602 89.476 C 287.833 89.329,286.972 89.097,286.688 88.959 C 286.065 88.658,279.032 88.612,278.387 88.905 C 278.151 89.013,277.164 89.269,276.196 89.476 C 274.348 89.869,270.429 91.600,269.973 92.223 C 269.424 92.974,269.396 92.029,269.751 84.782 C 270.284 73.881,270.307 74.107,268.594 73.222 C 267.678 72.748,255.248 72.778,254.301 73.257 M308.495 73.108 C 306.836 73.794,307.025 71.748,306.477 95.054 C 306.345 100.672,306.140 106.478,306.022 107.957 C 305.903 109.435,305.705 114.129,305.580 118.387 C 305.455 122.645,305.266 127.931,305.160 130.133 C 305.053 132.336,304.898 135.654,304.816 137.507 C 304.733 139.359,304.584 140.926,304.483 140.988 C 304.139 141.201,304.301 142.874,304.765 143.900 C 305.507 145.540,305.759 145.591,313.131 145.591 C 320.185 145.591,320.881 145.462,321.181 144.093 C 321.259 143.737,321.413 143.391,321.522 143.323 C 321.631 143.256,321.721 141.634,321.721 139.718 C 321.721 137.803,321.785 133.394,321.864 129.919 L 322.006 123.602 322.430 124.435 C 322.664 124.894,322.922 125.317,323.003 125.376 C 323.085 125.435,323.434 126.016,323.779 126.667 C 324.123 127.317,324.466 127.898,324.540 127.957 C 324.614 128.016,324.862 128.455,325.091 128.931 C 325.520 129.827,326.882 132.165,327.535 133.129 C 327.739 133.430,328.172 134.204,328.497 134.849 C 328.823 135.494,329.166 136.071,329.259 136.132 C 329.353 136.192,329.638 136.797,329.892 137.476 C 330.146 138.155,330.476 138.833,330.626 138.983 C 330.776 139.133,331.170 139.858,331.500 140.595 C 331.831 141.332,332.171 141.935,332.255 141.935 C 332.340 141.935,332.681 142.576,333.014 143.360 C 333.966 145.599,333.891 145.581,342.258 145.586 C 349.969 145.591,350.237 145.545,351.003 144.089 C 351.651 142.859,350.968 140.525,349.461 138.817 C 349.117 138.428,348.171 136.887,347.303 135.302 C 347.121 134.969,346.613 134.156,346.174 133.495 C 345.735 132.834,345.376 132.221,345.376 132.134 C 345.376 132.047,345.148 131.677,344.869 131.311 C 344.590 130.945,344.098 130.161,343.775 129.570 C 343.453 128.978,342.810 127.866,342.347 127.097 C 341.883 126.328,341.205 125.191,340.839 124.570 C 340.473 123.949,340.093 123.391,339.993 123.329 C 339.894 123.268,339.551 122.663,339.232 121.985 C 338.913 121.307,338.581 120.704,338.495 120.645 C 338.408 120.586,338.141 120.149,337.900 119.675 C 337.660 119.201,336.969 118.008,336.366 117.025 C 335.296 115.281,335.053 114.624,335.478 114.624 C 335.594 114.624,335.831 114.346,336.007 114.007 C 336.182 113.668,336.520 113.160,336.759 112.878 C 336.997 112.596,337.721 111.640,338.369 110.753 C 339.016 109.866,339.797 108.801,340.104 108.387 C 340.412 107.973,341.137 106.957,341.716 106.129 C 342.295 105.301,342.924 104.451,343.113 104.239 C 343.303 104.027,343.659 103.495,343.904 103.056 C 344.150 102.617,344.432 102.207,344.531 102.144 C 344.630 102.082,345.289 101.211,345.996 100.209 C 346.704 99.207,347.431 98.221,347.612 98.018 C 347.794 97.815,348.203 97.234,348.523 96.728 C 348.842 96.221,349.225 95.710,349.374 95.591 C 351.232 94.120,350.610 90.649,348.397 90.140 C 347.804 90.004,336.656 89.958,334.244 90.082 C 333.643 90.113,332.506 91.257,331.710 92.628 C 331.383 93.193,330.888 93.929,330.611 94.264 C 330.334 94.598,330.108 94.972,330.108 95.095 C 330.108 95.218,329.781 95.767,329.383 96.315 C 328.984 96.863,328.487 97.651,328.277 98.065 C 328.068 98.478,327.829 98.866,327.745 98.925 C 327.662 98.984,327.004 99.952,326.283 101.075 C 325.563 102.199,324.827 103.282,324.649 103.483 C 324.470 103.684,324.183 104.119,324.011 104.451 C 323.839 104.782,323.405 105.421,323.047 105.871 L 322.396 106.688 322.494 103.828 C 322.644 99.475,323.005 92.846,323.230 90.323 C 323.455 87.811,323.881 79.247,323.916 76.553 C 323.942 74.577,323.634 73.934,322.350 73.280 C 321.547 72.870,309.433 72.720,308.495 73.108 M137.806 75.568 C 150.852 77.563,158.142 88.591,158.154 106.344 C 158.163 118.765,154.680 128.942,148.175 135.503 C 143.550 140.169,139.491 141.961,131.399 142.910 C 128.406 143.262,102.059 143.384,101.851 143.048 C 101.790 142.950,101.830 141.377,101.940 139.553 C 102.050 137.729,102.196 135.220,102.266 133.978 C 102.335 132.737,102.482 130.773,102.592 129.614 C 102.703 128.456,102.888 124.778,103.004 121.442 C 103.120 118.106,103.266 114.070,103.329 112.473 C 103.513 107.817,103.840 96.560,104.091 86.237 C 104.218 80.973,104.342 76.376,104.366 76.022 L 104.409 75.376 113.226 75.253 C 126.833 75.062,135.201 75.169,137.806 75.568 M267.740 76.828 C 267.739 77.685,267.642 79.960,267.525 81.883 C 267.176 87.624,266.653 98.983,266.735 99.064 C 266.776 99.106,267.166 98.623,267.601 97.992 C 274.238 88.355,292.214 88.671,297.144 98.511 C 298.894 102.003,299.104 105.387,298.422 119.032 C 297.999 127.500,297.626 136.849,297.569 140.430 L 297.527 143.118 291.075 143.118 L 284.624 143.118 284.681 142.043 C 284.712 141.452,284.932 138.161,285.168 134.731 C 286.669 112.966,286.563 108.582,284.470 105.666 C 281.461 101.477,273.669 101.885,269.958 106.426 C 266.822 110.264,265.912 115.768,265.370 134.194 C 265.232 138.866,265.083 142.809,265.040 142.957 C 264.978 143.164,263.551 143.226,258.847 143.226 C 254.153 143.226,252.711 143.163,252.636 142.957 C 252.582 142.809,252.663 140.753,252.817 138.387 C 253.907 121.596,254.289 112.279,254.735 91.566 C 254.921 82.898,255.115 75.685,255.165 75.538 C 255.234 75.331,256.696 75.269,261.499 75.269 L 267.742 75.269 267.740 76.828 M321.398 77.957 C 321.398 80.713,321.134 87.430,320.962 89.032 C 320.905 89.565,320.668 94.887,320.435 100.860 C 320.201 106.833,319.963 112.325,319.906 113.065 C 319.769 114.821,319.844 114.782,321.593 112.197 C 325.917 105.800,332.702 95.536,333.548 94.111 L 334.516 92.481 341.398 92.531 C 346.657 92.569,348.280 92.643,348.280 92.844 C 348.280 92.989,346.441 95.632,344.194 98.719 C 341.946 101.805,339.914 104.601,339.677 104.933 C 338.599 106.446,337.352 108.171,336.481 109.355 C 335.959 110.065,334.856 111.624,334.031 112.821 L 332.531 114.998 333.598 116.907 C 335.807 120.860,340.300 128.360,347.291 139.760 C 348.262 141.343,349.005 142.770,348.943 142.932 C 348.852 143.172,347.603 143.226,342.179 143.226 L 335.527 143.226 334.503 141.237 C 331.522 135.447,330.794 134.085,329.415 131.720 C 328.587 130.301,327.517 128.462,327.038 127.634 C 326.559 126.806,325.908 125.694,325.591 125.161 C 325.275 124.629,324.599 123.468,324.088 122.581 C 323.578 121.694,322.949 120.629,322.690 120.215 C 322.431 119.801,321.696 118.495,321.056 117.312 L 319.892 115.161 319.732 119.247 C 319.643 121.495,319.498 127.785,319.409 133.226 L 319.247 143.118 313.089 143.175 C 308.191 143.221,306.908 143.175,306.823 142.953 C 306.718 142.680,307.175 135.007,307.406 133.164 C 307.469 132.657,307.665 127.770,307.841 122.304 C 308.017 116.838,308.215 111.640,308.280 110.753 C 308.441 108.558,309.028 84.229,309.030 79.641 C 309.031 77.611,309.092 75.795,309.164 75.606 C 309.281 75.300,309.969 75.269,315.347 75.319 L 321.398 75.376 321.398 77.957 M52.828 79.462 C 52.752 81.473,52.689 83.878,52.689 84.808 L 52.688 86.497 50.054 86.364 C 45.303 86.125,35.597 85.999,35.356 86.174 C 35.057 86.390,34.745 94.161,34.290 112.688 C 34.099 120.435,33.855 126.942,33.746 127.148 C 33.637 127.354,33.548 130.837,33.548 134.926 C 33.548 138.998,33.490 142.483,33.418 142.671 C 33.267 143.065,30.235 143.176,30.000 142.796 C 29.922 142.669,28.636 142.581,26.869 142.581 C 25.014 142.581,23.871 142.663,23.871 142.796 C 23.871 142.920,23.187 143.011,22.248 143.011 L 20.626 143.011 20.738 142.312 C 20.800 141.927,20.950 139.290,21.072 136.452 C 21.195 133.613,21.392 130.661,21.510 129.892 C 21.838 127.762,22.787 97.891,22.793 89.493 L 22.796 85.976 17.796 86.106 C 15.046 86.177,11.175 86.294,9.194 86.366 L 5.591 86.496 5.592 84.807 C 5.592 83.878,5.655 81.473,5.731 79.462 L 5.870 75.806 29.418 75.806 L 52.967 75.806 52.828 79.462 M121.144 86.211 C 118.875 86.288,116.978 86.398,116.929 86.455 C 116.880 86.512,116.730 90.333,116.595 94.946 C 116.461 99.559,116.100 109.754,115.794 117.601 C 115.488 125.448,115.281 131.912,115.334 131.964 C 116.079 132.710,127.471 132.056,131.398 131.043 C 141.375 128.469,147.444 112.766,143.967 98.519 C 141.474 88.302,136.619 85.684,121.144 86.211 M130.818 88.608 C 132.096 88.729,133.306 88.915,133.506 89.022 C 133.707 89.128,134.272 89.362,134.761 89.543 C 136.133 90.047,138.710 91.892,138.710 92.370 C 138.710 92.511,139.815 94.219,140.110 94.534 C 140.230 94.663,140.561 95.485,140.846 96.362 C 141.131 97.239,141.440 98.009,141.533 98.072 C 142.564 98.770,142.553 113.255,141.519 115.591 C 141.414 115.828,141.077 116.862,140.770 117.888 C 140.060 120.257,138.243 123.508,136.858 124.885 C 136.594 125.147,136.250 125.534,136.093 125.745 C 135.935 125.957,135.419 126.414,134.946 126.763 C 134.473 127.111,134.038 127.450,133.978 127.516 C 133.815 127.696,132.273 128.387,132.033 128.387 C 131.918 128.387,131.413 128.576,130.912 128.806 C 129.622 129.399,127.234 129.676,122.097 129.828 L 117.634 129.960 117.634 128.421 C 117.634 127.574,117.737 124.970,117.862 122.634 C 117.987 120.298,118.182 116.016,118.294 113.118 C 118.856 98.645,119.104 91.783,119.121 90.281 L 119.140 88.626 120.161 88.545 C 122.447 88.365,128.641 88.401,130.818 88.608 M68.710 89.032 C 68.637 89.151,68.336 89.247,68.043 89.247 C 67.023 89.247,64.188 89.926,63.118 90.425 C 62.527 90.702,61.469 91.129,60.767 91.376 C 60.065 91.622,59.436 91.902,59.369 91.999 C 59.302 92.095,58.820 92.393,58.298 92.661 C 57.216 93.216,54.450 95.423,53.460 96.520 C 53.095 96.925,52.597 97.463,52.353 97.714 C 52.110 97.966,51.679 98.559,51.397 99.032 C 51.114 99.505,50.820 99.941,50.743 100.000 C 50.666 100.059,50.359 100.543,50.062 101.075 C 49.765 101.608,49.323 102.382,49.082 102.796 C 48.840 103.210,48.467 104.129,48.252 104.839 C 48.037 105.548,47.796 106.177,47.717 106.237 C 47.527 106.378,46.928 108.790,46.543 110.961 C 46.374 111.911,46.093 113.487,45.918 114.462 C 45.507 116.755,45.511 120.718,45.928 122.903 C 46.108 123.849,46.400 125.398,46.578 126.344 C 46.973 128.453,47.511 130.571,47.725 130.860 C 47.813 130.978,48.107 131.704,48.380 132.473 C 48.652 133.242,49.104 134.145,49.384 134.479 C 49.664 134.813,49.892 135.210,49.892 135.361 C 49.892 135.513,50.110 135.873,50.376 136.163 C 50.642 136.453,50.997 136.949,51.163 137.266 C 51.637 138.166,53.501 140.286,54.091 140.595 C 54.384 140.748,54.624 140.959,54.624 141.063 C 54.624 141.732,59.575 144.522,62.258 145.365 C 63.086 145.625,63.957 145.924,64.194 146.029 C 66.160 146.904,77.849 146.871,77.849 145.990 C 77.849 145.889,78.043 145.806,78.280 145.806 C 78.897 145.806,82.459 144.544,82.545 144.295 C 82.584 144.180,82.729 144.086,82.867 144.085 C 83.267 144.084,85.067 143.116,85.608 142.611 C 85.880 142.358,86.221 142.151,86.366 142.151 C 86.510 142.151,86.873 141.860,87.171 141.505 C 87.470 141.151,87.802 140.860,87.909 140.860 C 88.195 140.860,91.398 137.209,91.398 136.882 C 91.398 136.820,91.784 136.203,92.257 135.511 C 92.729 134.819,93.268 133.925,93.454 133.525 C 93.641 133.124,93.925 132.554,94.085 132.258 C 94.246 131.962,94.600 130.946,94.873 130.000 C 95.146 129.054,95.429 128.231,95.503 128.172 C 95.657 128.048,96.049 126.444,96.343 124.731 C 96.455 124.081,96.694 122.873,96.875 122.047 C 97.313 120.038,97.498 115.781,97.239 113.656 C 96.970 111.450,95.730 105.531,95.506 105.382 C 95.412 105.320,95.118 104.543,94.852 103.656 C 94.451 102.319,92.783 99.103,92.285 98.710 C 92.210 98.651,91.877 98.200,91.544 97.709 C 91.211 97.218,90.244 96.174,89.394 95.387 C 87.328 93.476,87.232 93.400,86.066 92.753 C 85.509 92.445,85.005 92.125,84.946 92.043 C 84.887 91.960,84.161 91.628,83.333 91.305 C 82.505 90.981,81.441 90.538,80.968 90.320 C 80.495 90.101,79.237 89.766,78.172 89.575 C 77.108 89.384,75.939 89.136,75.576 89.023 C 74.689 88.747,68.881 88.755,68.710 89.032 M184.398 88.995 C 184.285 89.093,183.441 89.293,182.521 89.440 C 180.902 89.699,178.929 90.257,178.710 90.519 C 178.651 90.590,178.215 90.774,177.742 90.928 C 176.556 91.315,175.183 91.895,175.054 92.063 C 174.995 92.140,174.426 92.482,173.791 92.822 C 173.156 93.162,172.589 93.562,172.532 93.710 C 172.474 93.858,172.332 93.978,172.216 93.978 C 170.403 93.978,164.527 102.321,163.507 106.344 C 163.297 107.172,163.053 107.903,162.964 107.967 C 161.417 109.101,161.439 125.505,162.991 129.140 C 163.093 129.376,163.440 130.392,163.764 131.398 C 164.088 132.403,164.414 133.274,164.488 133.333 C 164.563 133.392,164.903 133.973,165.246 134.624 C 165.588 135.274,166.027 136.000,166.223 136.237 C 166.419 136.473,166.719 136.951,166.892 137.299 C 168.229 140.003,173.941 144.126,178.065 145.363 C 178.952 145.629,179.871 145.935,180.108 146.043 C 182.037 146.920,193.548 146.870,193.548 145.984 C 193.548 145.886,193.730 145.806,193.951 145.806 C 195.112 145.806,199.559 143.936,201.505 142.629 C 202.494 141.965,206.022 138.732,206.022 138.490 C 206.022 138.387,206.263 138.041,206.559 137.722 C 206.855 137.403,207.097 137.029,207.097 136.891 C 207.097 136.753,207.315 136.408,207.581 136.124 C 207.847 135.839,208.161 135.443,208.280 135.243 C 209.066 133.910,209.882 132.195,210.211 131.183 C 210.422 130.532,210.673 129.900,210.770 129.777 C 210.963 129.530,212.407 123.930,212.697 122.301 C 213.280 119.024,213.104 111.813,212.382 109.462 C 212.219 108.930,211.817 107.478,211.490 106.237 C 211.163 104.995,210.829 103.930,210.748 103.871 C 210.666 103.812,210.476 103.376,210.325 102.903 C 209.213 99.430,204.903 94.304,201.719 92.670 C 201.188 92.397,200.704 92.108,200.645 92.028 C 200.586 91.948,200.005 91.667,199.355 91.405 C 198.704 91.142,197.785 90.750,197.312 90.534 C 196.215 90.031,194.220 89.520,192.628 89.333 C 191.945 89.252,191.334 89.104,191.272 89.002 C 191.125 88.765,184.670 88.759,184.398 88.995 M229.353 88.986 C 229.236 89.089,228.387 89.293,227.467 89.440 C 225.563 89.745,223.871 90.270,223.871 90.558 C 223.871 90.665,223.750 90.754,223.602 90.755 C 223.085 90.759,220.994 91.848,220.701 92.266 C 220.539 92.498,220.278 92.688,220.121 92.688 C 219.342 92.688,216.444 97.017,215.803 99.140 C 215.606 99.790,215.333 100.555,215.196 100.840 C 214.853 101.549,214.858 107.930,215.202 108.624 C 215.342 108.908,215.612 109.699,215.801 110.382 C 215.990 111.066,216.310 111.904,216.513 112.245 C 216.716 112.586,217.186 113.381,217.559 114.013 C 218.510 115.625,220.671 118.154,222.795 120.139 C 227.087 124.151,230.349 127.454,230.462 127.903 C 230.529 128.169,230.671 128.387,230.776 128.387 C 231.274 128.387,230.940 129.852,230.269 130.613 C 228.981 132.073,223.209 132.086,220.362 130.636 C 219.985 130.444,219.006 130.043,218.186 129.743 C 217.366 129.444,216.564 129.068,216.405 128.909 C 215.580 128.084,213.959 128.276,212.802 129.335 C 211.801 130.252,211.680 131.026,212.045 134.194 C 212.188 135.435,212.380 137.226,212.473 138.172 C 212.918 142.710,213.245 144.086,213.879 144.086 C 214.052 144.086,214.194 144.172,214.194 144.277 C 214.194 144.382,215.524 144.780,217.151 145.163 C 218.777 145.545,220.301 145.941,220.538 146.043 C 222.485 146.882,234.446 146.868,235.591 146.026 C 235.710 145.939,236.581 145.604,237.527 145.282 C 238.473 144.961,239.392 144.581,239.570 144.439 C 239.747 144.296,240.296 143.964,240.789 143.699 C 243.784 142.092,246.690 138.100,247.347 134.689 C 247.479 134.003,247.671 133.349,247.772 133.237 C 248.015 132.969,248.013 127.802,247.770 127.652 C 247.667 127.588,247.518 127.123,247.437 126.618 C 247.222 125.266,246.674 123.480,246.379 123.172 C 246.237 123.024,245.935 122.468,245.708 121.935 C 244.901 120.050,242.181 116.839,238.817 113.803 C 238.108 113.162,236.849 111.992,236.022 111.203 C 235.194 110.414,234.312 109.627,234.063 109.454 C 232.255 108.201,231.441 105.792,232.505 104.844 C 233.621 103.850,240.384 103.538,241.055 104.449 C 241.215 104.668,244.517 105.806,244.991 105.806 C 245.183 105.806,245.381 105.927,245.431 106.075 C 245.524 106.354,245.545 106.347,247.479 105.402 C 248.575 104.866,248.662 104.198,248.396 98.319 C 248.099 91.742,247.826 90.753,246.304 90.753 C 246.030 90.753,245.806 90.663,245.806 90.553 C 245.806 89.743,230.187 88.256,229.353 88.986 M370.645 89.015 C 370.409 89.109,369.489 89.252,368.602 89.333 C 366.259 89.547,362.327 90.254,362.174 90.489 C 362.102 90.600,361.656 90.756,361.183 90.837 C 357.739 91.420,356.229 91.894,355.564 92.597 C 354.812 93.392,354.810 93.402,354.290 98.602 C 354.101 100.495,353.857 102.135,353.747 102.247 C 353.418 102.585,353.523 104.275,353.911 104.900 C 354.832 106.382,356.594 106.959,357.748 106.157 C 357.981 105.995,358.894 105.602,359.777 105.284 C 360.660 104.967,361.483 104.626,361.605 104.526 C 361.728 104.426,362.844 104.083,364.086 103.764 C 365.328 103.445,366.538 103.103,366.774 103.005 C 368.535 102.274,374.626 101.967,375.676 102.555 C 378.526 104.153,377.777 107.347,374.301 108.417 C 373.473 108.671,372.747 108.941,372.688 109.017 C 372.629 109.092,372.097 109.265,371.505 109.400 C 367.862 110.236,367.181 110.416,366.682 110.676 C 366.378 110.835,365.976 110.966,365.788 110.966 C 365.334 110.968,362.717 111.831,362.581 112.024 C 362.522 112.108,361.836 112.389,361.058 112.648 C 359.453 113.183,356.588 114.617,355.605 115.378 C 353.581 116.943,352.298 118.199,350.824 120.057 C 350.401 120.592,349.462 122.547,349.462 122.896 C 349.462 123.077,349.373 123.226,349.265 123.226 C 347.784 123.226,347.602 133.451,349.029 136.452 C 349.254 136.925,349.639 137.856,349.886 138.521 C 350.132 139.186,350.572 140.009,350.865 140.349 C 351.158 140.689,351.397 141.036,351.398 141.119 C 351.398 141.326,353.650 143.656,353.849 143.656 C 353.937 143.656,354.413 143.925,354.907 144.255 C 355.914 144.925,357.984 145.806,358.553 145.806 C 358.757 145.806,358.925 145.886,358.925 145.984 C 358.925 146.375,361.878 146.667,365.831 146.667 C 369.925 146.667,373.548 146.349,373.548 145.989 C 373.548 145.889,373.797 145.806,374.100 145.806 C 374.925 145.806,376.129 144.803,376.130 144.114 C 376.131 143.551,376.133 143.552,376.565 144.260 C 377.329 145.515,377.794 145.591,384.612 145.591 C 393.911 145.591,393.154 146.410,393.369 136.129 C 393.457 131.930,393.576 127.769,393.634 126.882 C 393.692 125.995,393.902 122.946,394.100 120.108 C 394.513 114.200,394.749 100.954,394.448 100.573 C 394.339 100.435,394.180 99.935,394.095 99.462 C 394.010 98.989,393.865 98.505,393.772 98.387 C 393.680 98.269,393.494 97.830,393.360 97.412 C 392.905 95.996,389.873 92.473,389.110 92.473 C 388.942 92.473,388.749 92.332,388.683 92.159 C 388.617 91.986,388.354 91.780,388.098 91.701 C 387.843 91.622,386.858 91.187,385.909 90.734 C 384.685 90.150,383.560 89.808,382.038 89.559 C 380.858 89.365,379.724 89.119,379.519 89.012 C 379.063 88.774,371.246 88.777,370.645 89.015 M193.978 91.919 C 204.824 94.736,210.645 103.433,210.615 116.774 C 210.577 133.981,201.065 144.764,186.237 144.409 C 172.246 144.075,163.972 134.481,163.981 118.602 C 163.990 103.300,171.050 93.921,184.516 91.321 C 186.210 90.993,191.768 91.345,193.978 91.919 M241.797 92.006 C 243.790 92.359,245.499 92.729,245.594 92.829 C 245.861 93.109,246.295 103.469,246.050 103.713 C 245.918 103.845,245.389 103.711,244.589 103.344 C 238.855 100.714,231.693 101.082,230.147 104.086 C 228.868 106.573,229.734 108.473,233.945 112.421 C 244.045 121.889,245.475 124.137,245.475 130.538 C 245.474 142.010,234.208 147.207,218.212 143.115 C 214.843 142.253,215.251 142.817,214.820 138.435 C 213.964 129.733,213.820 130.255,216.712 131.579 C 226.192 135.922,233.517 134.713,233.077 128.878 C 232.927 126.882,232.447 126.181,228.842 122.688 C 219.708 113.839,218.514 112.301,217.527 108.117 C 215.547 99.719,220.243 93.110,229.462 91.319 C 231.165 90.988,238.282 91.385,241.797 92.006 M382.432 91.998 C 388.009 93.462,391.277 96.559,392.052 101.114 C 392.454 103.478,392.240 110.772,391.186 130.672 C 391.066 132.933,390.968 136.530,390.968 138.665 C 390.968 140.799,390.909 142.699,390.837 142.886 C 390.687 143.278,378.851 143.414,378.612 143.026 C 378.544 142.916,378.588 141.489,378.709 139.854 C 379.304 131.846,379.923 118.065,379.688 118.065 C 379.600 118.065,379.250 118.263,378.909 118.506 C 377.914 119.215,375.701 120.148,371.835 121.490 C 364.297 124.108,361.865 126.418,362.203 130.639 C 362.579 135.321,367.428 137.128,373.817 134.967 C 375.846 134.281,376.153 134.475,375.619 136.107 C 375.297 137.091,374.288 141.382,374.032 142.855 C 373.648 145.063,361.578 145.025,357.068 142.802 C 350.720 139.672,348.218 129.180,352.197 122.372 C 354.793 117.932,361.506 114.022,369.570 112.255 C 376.710 110.691,379.785 108.522,379.785 105.052 C 379.785 98.969,369.599 98.295,357.849 103.601 C 356.317 104.293,355.914 104.289,355.914 103.584 C 355.914 103.137,356.927 95.414,357.105 94.503 C 357.247 93.782,362.994 92.451,370.860 91.319 C 373.357 90.959,379.947 91.346,382.432 91.998 M75.161 91.831 C 76.226 91.949,77.290 92.132,77.527 92.238 C 77.763 92.344,78.869 92.680,79.984 92.985 C 81.099 93.290,82.067 93.625,82.135 93.731 C 82.203 93.836,82.790 94.189,83.441 94.516 C 84.091 94.843,84.672 95.180,84.731 95.265 C 84.790 95.350,85.226 95.667,85.699 95.969 C 87.309 96.996,91.398 101.935,91.398 102.853 C 91.398 102.951,91.746 103.775,92.172 104.684 C 92.597 105.593,93.101 107.064,93.290 107.953 C 93.479 108.842,93.699 109.618,93.778 109.677 C 94.559 110.261,94.558 121.923,93.777 123.763 C 93.677 124.000,93.400 125.025,93.163 126.042 C 92.926 127.059,92.491 128.414,92.197 129.053 C 91.903 129.692,91.485 130.699,91.269 131.290 C 91.053 131.882,90.758 132.487,90.614 132.636 C 90.469 132.784,90.284 133.123,90.203 133.388 C 89.716 134.973,85.876 139.161,83.763 140.411 C 83.290 140.691,82.565 141.142,82.151 141.412 C 81.737 141.682,80.866 142.073,80.215 142.279 C 79.565 142.486,78.984 142.726,78.924 142.813 C 78.071 144.062,66.298 144.128,63.548 142.899 C 63.194 142.741,62.227 142.346,61.401 142.023 C 60.575 141.700,59.767 141.303,59.605 141.141 C 59.443 140.979,58.909 140.643,58.418 140.394 C 57.497 139.927,53.118 135.661,53.118 135.230 C 53.118 135.096,52.867 134.658,52.561 134.256 C 52.254 133.854,51.761 132.926,51.464 132.193 C 51.168 131.460,50.850 130.763,50.758 130.645 C 50.666 130.527,50.332 129.511,50.017 128.387 C 49.701 127.263,49.354 126.182,49.246 125.985 C 48.425 124.483,48.433 111.183,49.254 111.183 C 49.339 111.183,49.472 110.781,49.550 110.290 C 49.702 109.338,50.498 106.703,50.742 106.344 C 50.822 106.226,51.168 105.452,51.511 104.624 C 51.854 103.796,52.404 102.717,52.734 102.227 C 53.063 101.737,53.333 101.233,53.333 101.109 C 53.333 100.984,53.455 100.804,53.603 100.710 C 53.752 100.615,54.130 100.199,54.443 99.785 C 56.054 97.653,58.468 95.673,60.853 94.525 C 61.500 94.214,62.084 93.872,62.150 93.765 C 62.216 93.658,63.187 93.316,64.307 93.006 C 65.427 92.695,66.538 92.350,66.774 92.239 C 67.879 91.718,72.232 91.506,75.161 91.831 M69.005 102.103 C 68.221 102.315,67.236 102.752,66.815 103.072 C 66.394 103.393,65.971 103.656,65.875 103.656 C 65.327 103.657,62.997 106.555,62.245 108.172 C 61.942 108.823,61.607 109.518,61.500 109.716 C 59.646 113.162,59.909 124.679,61.928 128.490 C 62.665 129.881,62.792 130.044,64.409 131.673 C 69.373 136.674,78.767 134.142,80.985 127.204 C 81.174 126.613,81.456 125.839,81.612 125.484 C 83.730 120.675,82.761 108.707,80.001 105.591 C 79.739 105.296,79.365 104.853,79.170 104.608 C 78.975 104.362,78.380 103.879,77.848 103.534 C 77.317 103.190,76.829 102.837,76.765 102.750 C 76.124 101.884,71.296 101.481,69.005 102.103 M186.239 102.391 C 179.596 103.222,175.706 111.001,176.576 121.718 C 177.207 129.490,180.808 133.656,186.893 133.656 C 194.016 133.656,197.941 127.665,197.952 116.774 C 197.962 106.443,193.885 101.436,186.239 102.391 M74.841 105.055 C 79.362 106.650,81.163 114.545,79.109 123.763 C 78.559 126.230,76.525 129.587,75.262 130.110 C 74.911 130.256,74.624 130.451,74.624 130.544 C 74.624 130.894,72.553 131.398,71.110 131.398 C 69.645 131.398,67.312 130.847,67.312 130.501 C 67.312 130.406,66.925 130.084,66.452 129.785 C 65.978 129.486,65.591 129.140,65.591 129.015 C 65.591 128.891,65.352 128.475,65.060 128.092 C 61.649 123.620,62.650 110.630,66.712 106.667 C 68.577 104.847,72.210 104.126,74.841 105.055 M190.560 105.058 C 191.432 105.355,192.603 106.328,193.752 107.709 C 193.983 107.986,194.378 108.857,194.628 109.644 C 194.879 110.431,195.173 111.269,195.280 111.505 C 196.106 113.322,196.098 119.551,195.266 122.258 C 195.157 122.613,194.864 123.622,194.613 124.500 C 193.105 129.792,189.178 132.421,184.656 131.166 C 183.674 130.893,181.460 129.350,181.151 128.722 C 181.031 128.479,180.641 127.747,180.285 127.097 C 178.500 123.842,178.337 114.612,179.997 110.860 C 180.206 110.387,180.566 109.565,180.798 109.032 C 182.288 105.605,186.788 103.773,190.560 105.058 M377.184 125.806 C 377.088 127.876,376.945 130.208,376.865 130.987 L 376.721 132.405 375.726 132.313 C 375.039 132.249,374.199 132.392,373.011 132.774 C 372.065 133.079,371.024 133.329,370.699 133.331 C 370.374 133.332,370.108 133.430,370.108 133.548 C 370.108 133.667,369.581 133.763,368.937 133.763 C 368.294 133.763,367.708 133.667,367.634 133.548 C 367.561 133.430,367.309 133.333,367.073 133.333 C 364.138 133.333,363.544 128.699,366.224 126.700 C 366.645 126.386,367.086 126.023,367.204 125.892 C 367.323 125.762,368.000 125.432,368.710 125.158 C 369.419 124.885,370.108 124.579,370.239 124.479 C 370.370 124.380,371.290 124.051,372.282 123.750 C 373.274 123.449,374.328 123.092,374.624 122.958 C 375.129 122.729,377.285 121.987,377.335 122.025 C 377.348 122.035,377.280 123.737,377.184 125.806 " stroke="none" fill="#f8f8f9" fill-rule="evenodd"></path><path id="path1" d="M124.914 75.365 C 124.836 75.446,120.240 75.544,114.698 75.582 L 104.624 75.650 104.584 76.373 C 104.562 76.771,104.437 82.516,104.305 89.140 C 104.174 95.763,103.928 104.957,103.758 109.570 C 103.589 114.183,103.396 119.554,103.330 121.505 C 103.264 123.457,103.116 126.118,103.003 127.419 C 102.779 129.982,102.151 140.881,102.151 142.219 L 102.151 143.039 116.398 142.952 C 131.413 142.861,130.840 142.894,136.452 141.806 C 147.568 139.650,155.798 128.408,157.531 113.011 C 159.425 96.179,154.019 81.949,144.124 77.720 C 143.452 77.433,142.741 77.107,142.543 76.995 C 140.831 76.026,125.616 74.619,124.914 75.365 M255.500 75.699 C 255.413 75.758,255.174 83.597,254.967 93.118 C 254.593 110.402,254.424 115.627,253.990 123.333 C 253.864 125.581,253.617 130.081,253.442 133.333 C 253.266 136.586,253.061 140.096,252.985 141.132 L 252.847 143.018 258.843 142.960 L 264.839 142.903 264.887 140.215 C 265.285 118.089,266.259 110.896,269.437 106.593 C 273.327 101.328,282.029 101.060,285.150 106.111 C 286.506 108.305,286.753 113.483,286.042 124.839 C 285.908 126.968,285.653 131.129,285.475 134.086 C 285.297 137.043,285.090 140.262,285.017 141.240 L 284.882 143.017 291.097 142.960 L 297.312 142.903 297.449 136.129 C 297.585 129.437,297.964 120.032,298.200 117.527 C 299.837 100.115,296.568 93.140,286.048 91.603 C 277.649 90.377,270.864 93.099,267.126 99.194 C 266.854 99.637,266.577 100.000,266.510 100.000 C 266.252 100.000,267.080 82.131,267.535 77.872 C 267.654 76.760,267.705 75.805,267.648 75.749 C 267.510 75.611,255.700 75.562,255.500 75.699 M309.496 75.806 C 309.418 75.925,309.333 77.473,309.306 79.247 C 308.949 102.886,308.213 125.847,307.540 134.409 C 307.433 135.769,307.277 138.261,307.193 139.946 L 307.042 143.011 312.979 143.011 L 318.917 143.011 319.015 142.527 C 319.068 142.261,319.166 136.866,319.230 130.538 C 319.295 124.210,319.537 114.677,319.769 109.355 C 320.000 104.032,320.249 97.984,320.321 95.914 C 320.394 93.844,320.591 89.586,320.759 86.452 C 320.928 83.317,321.092 79.602,321.124 78.196 L 321.183 75.639 315.410 75.615 C 311.771 75.600,309.584 75.671,309.496 75.806 M132.796 86.360 C 139.787 87.370,144.027 93.197,144.981 103.107 C 145.435 107.827,144.560 115.638,143.200 119.003 C 142.955 119.610,142.601 120.495,142.414 120.968 C 140.495 125.821,136.201 129.999,131.826 131.269 C 128.524 132.228,115.872 132.933,115.138 132.199 C 115.048 132.109,115.140 127.319,115.343 121.555 C 115.546 115.791,115.804 108.366,115.917 105.054 C 116.411 90.555,116.594 86.334,116.739 86.188 C 117.180 85.741,129.415 85.872,132.796 86.360 M184.624 91.635 C 178.389 92.399,172.259 96.145,168.890 101.249 C 163.512 109.397,162.546 123.219,166.757 131.780 C 167.181 132.641,167.527 133.388,167.527 133.440 C 167.527 134.358,171.731 139.048,173.836 140.479 C 181.017 145.360,192.786 145.328,200.035 140.407 C 211.318 132.746,213.991 110.026,204.912 98.954 C 200.442 93.502,192.568 90.662,184.624 91.635 M230.645 91.520 C 222.166 92.679,218.001 96.595,217.510 103.871 C 217.096 109.993,219.304 113.478,229.590 122.938 C 232.863 125.949,233.837 127.880,233.314 130.320 C 232.276 135.159,225.132 135.789,216.402 131.812 C 215.546 131.422,214.784 131.166,214.707 131.243 C 214.630 131.320,214.750 133.771,214.972 136.691 L 215.376 142.000 216.559 142.389 C 221.654 144.063,231.095 144.599,235.054 143.438 C 243.695 140.904,247.573 132.760,244.057 124.531 C 242.866 121.742,241.407 119.905,237.345 116.079 C 229.159 108.367,228.505 107.336,229.780 104.158 C 231.046 101.004,238.625 100.347,244.218 102.905 C 245.876 103.663,246.105 103.628,245.952 102.634 C 245.883 102.191,245.761 99.989,245.681 97.742 C 245.600 95.495,245.456 93.503,245.360 93.317 C 244.902 92.424,233.878 91.078,230.645 91.520 M372.258 91.530 C 368.844 91.770,361.713 93.059,358.825 93.956 C 357.371 94.409,357.402 94.353,357.016 97.227 C 356.882 98.220,356.629 100.089,356.453 101.382 C 356.046 104.364,355.736 104.220,359.247 102.678 C 365.223 100.055,372.873 99.027,376.776 100.323 C 378.994 101.060,380.570 103.840,379.988 105.990 C 379.066 109.394,377.727 110.268,370.215 112.371 C 355.525 116.482,350.642 120.854,350.647 129.892 C 350.652 140.815,357.929 145.755,371.084 143.767 C 373.987 143.328,373.633 143.711,374.305 140.291 C 374.604 138.771,375.038 136.958,375.269 136.262 C 375.812 134.628,375.738 134.556,374.147 135.180 C 368.730 137.303,363.109 135.868,362.166 132.123 C 360.834 126.833,363.536 123.941,372.687 120.860 C 376.200 119.677,378.194 118.779,379.224 117.916 C 380.063 117.214,380.279 117.506,380.148 119.171 C 380.090 119.923,379.890 123.731,379.705 127.634 C 379.426 133.524,379.065 139.819,378.860 142.366 L 378.817 142.903 384.731 142.903 L 390.645 142.903 390.893 133.978 C 391.029 129.070,391.313 121.763,391.524 117.742 C 392.373 101.546,392.116 99.116,389.227 96.038 C 386.032 92.634,379.861 90.994,372.258 91.530 M333.377 94.964 C 331.634 97.716,327.074 104.598,324.840 107.849 C 323.945 109.151,323.054 110.457,322.859 110.753 C 322.663 111.048,321.969 112.092,321.316 113.072 L 320.128 114.853 320.917 116.405 C 321.723 117.991,321.862 118.235,324.839 123.303 C 325.785 124.914,326.707 126.499,326.888 126.826 C 327.070 127.152,327.903 128.581,328.741 130.000 C 330.600 133.150,331.486 134.774,333.847 139.355 L 335.676 142.903 342.139 142.960 C 349.468 143.025,349.039 143.160,347.818 141.170 C 347.387 140.467,346.801 139.505,346.516 139.032 C 346.231 138.559,345.280 137.011,344.402 135.591 C 343.525 134.172,342.441 132.401,341.995 131.655 C 341.548 130.909,340.892 129.823,340.538 129.240 C 340.183 128.658,339.274 127.139,338.518 125.865 C 337.762 124.591,336.882 123.113,336.563 122.581 C 336.245 122.048,335.566 120.887,335.056 120.000 C 334.546 119.113,333.914 118.046,333.653 117.630 C 333.391 117.213,332.963 116.452,332.701 115.939 L 332.225 115.005 333.693 112.849 C 335.764 109.808,335.685 109.921,336.980 108.157 C 337.625 107.278,338.683 105.833,339.329 104.946 C 339.976 104.059,340.860 102.849,341.292 102.258 C 341.725 101.667,343.127 99.731,344.407 97.957 C 345.687 96.183,347.009 94.374,347.346 93.937 C 348.339 92.648,348.530 92.688,341.388 92.688 L 334.818 92.688 333.377 94.964 M190.128 102.175 C 195.898 103.413,198.976 109.776,198.281 119.032 C 197.565 128.561,193.462 134.022,186.989 134.061 C 179.834 134.105,175.830 128.092,176.194 117.849 C 176.587 106.784,182.196 100.474,190.128 102.175 " stroke="none" fill="#040c34" fill-rule="evenodd"></path><path id="path2" d="M104.387 79.247 C 104.387 81.022,104.421 81.719,104.461 80.797 C 104.502 79.875,104.501 78.423,104.461 77.571 C 104.420 76.719,104.387 77.473,104.387 79.247 M267.161 84.946 C 267.161 85.597,267.202 85.863,267.251 85.538 C 267.300 85.212,267.300 84.680,267.251 84.355 C 267.202 84.030,267.161 84.296,267.161 84.946 M320.910 85.806 C 320.910 86.220,320.954 86.390,321.008 86.183 C 321.063 85.976,321.063 85.637,321.008 85.430 C 320.954 85.223,320.910 85.392,320.910 85.806 M320.695 88.602 C 320.695 89.016,320.739 89.185,320.793 88.978 C 320.847 88.772,320.847 88.433,320.793 88.226 C 320.739 88.019,320.695 88.188,320.695 88.602 M104.153 89.570 C 104.154 90.280,104.194 90.544,104.242 90.157 C 104.290 89.771,104.289 89.190,104.240 88.867 C 104.191 88.544,104.151 88.860,104.153 89.570 M339.624 92.633 C 340.540 92.673,342.040 92.673,342.957 92.633 C 343.874 92.593,343.124 92.560,341.290 92.560 C 339.457 92.560,338.707 92.593,339.624 92.633 M320.489 93.548 C 320.489 94.081,320.531 94.298,320.582 94.032 C 320.633 93.766,320.633 93.331,320.582 93.065 C 320.531 92.798,320.489 93.016,320.489 93.548 M308.890 94.624 C 308.890 95.511,308.927 95.874,308.974 95.430 C 309.020 94.987,309.020 94.261,308.974 93.817 C 308.927 93.374,308.890 93.737,308.890 94.624 M116.406 94.301 C 116.407 94.892,116.449 95.109,116.498 94.782 C 116.548 94.455,116.547 93.971,116.495 93.707 C 116.444 93.442,116.404 93.710,116.406 94.301 M245.658 94.516 C 245.659 95.226,245.699 95.490,245.747 95.104 C 245.795 94.717,245.794 94.137,245.745 93.813 C 245.696 93.490,245.657 93.806,245.658 94.516 M269.556 95.753 L 268.925 96.452 269.624 95.820 C 270.008 95.473,270.323 95.158,270.323 95.121 C 270.323 94.955,270.145 95.101,269.556 95.753 M103.942 97.742 C 103.942 98.570,103.981 98.882,104.028 98.436 C 104.074 97.990,104.074 97.312,104.026 96.931 C 103.979 96.549,103.941 96.914,103.942 97.742 M266.506 97.312 C 266.508 97.785,266.552 97.953,266.604 97.686 C 266.655 97.418,266.653 97.031,266.599 96.825 C 266.546 96.620,266.503 96.839,266.506 97.312 M116.191 99.677 C 116.192 100.269,116.234 100.485,116.283 100.158 C 116.333 99.831,116.331 99.348,116.280 99.083 C 116.229 98.819,116.189 99.086,116.191 99.677 M254.690 103.333 C 254.692 104.043,254.732 104.307,254.780 103.921 C 254.827 103.534,254.826 102.954,254.777 102.631 C 254.728 102.307,254.689 102.624,254.690 103.333 M245.996 102.964 C 245.925 103.391,245.957 103.592,246.076 103.472 C 246.184 103.364,246.237 103.047,246.193 102.767 C 246.125 102.336,246.095 102.367,245.996 102.964 M308.674 103.871 C 308.674 104.758,308.712 105.121,308.759 104.677 C 308.805 104.234,308.805 103.508,308.759 103.065 C 308.712 102.621,308.674 102.984,308.674 103.871 M217.277 104.731 C 217.277 105.618,217.315 105.981,217.361 105.538 C 217.407 105.094,217.407 104.368,217.361 103.925 C 217.315 103.481,217.277 103.844,217.277 104.731 M320.054 104.194 C 320.057 104.667,320.101 104.835,320.152 104.567 C 320.204 104.300,320.202 103.913,320.148 103.707 C 320.094 103.502,320.052 103.720,320.054 104.194 M115.973 105.376 C 115.973 105.909,116.014 106.126,116.066 105.860 C 116.117 105.594,116.117 105.159,116.066 104.892 C 116.014 104.626,115.973 104.844,115.973 105.376 M103.714 106.667 C 103.714 107.199,103.756 107.417,103.808 107.151 C 103.859 106.884,103.859 106.449,103.808 106.183 C 103.756 105.917,103.714 106.134,103.714 106.667 M254.479 107.849 C 254.480 108.677,254.519 108.990,254.566 108.544 C 254.612 108.097,254.611 107.420,254.564 107.038 C 254.516 106.656,254.478 107.022,254.479 107.849 M103.499 110.538 C 103.499 111.070,103.541 111.288,103.593 111.022 C 103.644 110.755,103.644 110.320,103.593 110.054 C 103.541 109.788,103.499 110.005,103.499 110.538 M298.549 110.860 C 298.551 111.333,298.595 111.502,298.647 111.234 C 298.698 110.967,298.696 110.579,298.642 110.374 C 298.589 110.168,298.546 110.387,298.549 110.860 M308.441 111.075 C 308.444 111.548,308.488 111.717,308.539 111.449 C 308.591 111.182,308.589 110.795,308.535 110.589 C 308.481 110.383,308.439 110.602,308.441 111.075 M254.262 112.473 C 254.262 113.242,254.301 113.556,254.349 113.172 C 254.397 112.788,254.397 112.159,254.349 111.774 C 254.301 111.390,254.262 111.704,254.262 112.473 M115.757 112.473 C 115.757 113.005,115.799 113.223,115.851 112.957 C 115.902 112.691,115.902 112.255,115.851 111.989 C 115.799 111.723,115.757 111.941,115.757 112.473 M236.559 115.121 C 236.559 115.158,236.874 115.473,237.258 115.820 L 237.957 116.452 237.325 115.753 C 236.737 115.101,236.559 114.955,236.559 115.121 M308.231 116.344 C 308.231 116.876,308.273 117.094,308.324 116.828 C 308.375 116.562,308.375 116.126,308.324 115.860 C 308.273 115.594,308.231 115.812,308.231 116.344 M319.620 116.129 C 319.620 116.543,319.664 116.712,319.718 116.505 C 319.772 116.298,319.772 115.960,319.718 115.753 C 319.664 115.546,319.620 115.715,319.620 116.129 M391.677 116.559 C 391.677 117.210,391.718 117.476,391.767 117.151 C 391.816 116.825,391.816 116.293,391.767 115.968 C 391.718 115.642,391.677 115.909,391.677 116.559 M176.183 117.742 C 176.186 118.215,176.230 118.383,176.281 118.116 C 176.333 117.848,176.331 117.461,176.277 117.256 C 176.223 117.050,176.181 117.269,176.183 117.742 M115.542 118.280 C 115.542 118.812,115.584 119.030,115.636 118.763 C 115.687 118.497,115.687 118.062,115.636 117.796 C 115.584 117.530,115.542 117.747,115.542 118.280 M308.016 120.215 C 308.016 120.747,308.058 120.965,308.109 120.699 C 308.160 120.433,308.160 119.997,308.109 119.731 C 308.058 119.465,308.016 119.683,308.016 120.215 M176.179 120.430 C 176.179 120.844,176.223 121.013,176.277 120.806 C 176.331 120.599,176.331 120.261,176.277 120.054 C 176.223 119.847,176.179 120.016,176.179 120.430 M253.813 122.796 C 253.813 123.210,253.858 123.379,253.912 123.172 C 253.966 122.965,253.966 122.626,253.912 122.419 C 253.858 122.212,253.813 122.382,253.813 122.796 M319.429 124.409 C 319.429 125.355,319.467 125.715,319.513 125.209 C 319.558 124.704,319.557 123.929,319.511 123.489 C 319.465 123.049,319.428 123.462,319.429 124.409 M265.426 125.161 C 265.426 125.575,265.470 125.745,265.525 125.538 C 265.579 125.331,265.579 124.992,265.525 124.785 C 265.470 124.578,265.426 124.747,265.426 125.161 M379.620 125.376 C 379.620 125.790,379.664 125.960,379.718 125.753 C 379.772 125.546,379.772 125.207,379.718 125.000 C 379.664 124.793,379.620 124.962,379.620 125.376 M297.904 125.699 C 297.906 126.172,297.950 126.340,298.002 126.073 C 298.053 125.805,298.051 125.418,297.997 125.213 C 297.943 125.007,297.901 125.226,297.904 125.699 M265.226 129.892 C 265.226 130.543,265.266 130.809,265.315 130.484 C 265.365 130.159,265.365 129.626,265.315 129.301 C 265.266 128.976,265.226 129.242,265.226 129.892 M391.022 129.785 C 391.024 130.258,391.068 130.426,391.120 130.159 C 391.171 129.891,391.169 129.504,391.116 129.299 C 391.062 129.093,391.020 129.312,391.022 129.785 M297.689 130.000 C 297.691 130.473,297.735 130.641,297.787 130.374 C 297.838 130.106,297.836 129.719,297.782 129.514 C 297.728 129.308,297.686 129.527,297.689 130.000 M319.212 133.548 C 319.212 134.435,319.250 134.798,319.296 134.355 C 319.343 133.911,319.343 133.185,319.296 132.742 C 319.250 132.298,319.212 132.661,319.212 133.548 M297.469 134.409 C 297.469 134.823,297.514 134.992,297.568 134.785 C 297.622 134.578,297.622 134.239,297.568 134.032 C 297.514 133.825,297.469 133.995,297.469 134.409 M265.020 137.957 C 265.021 138.903,265.059 139.264,265.104 138.758 C 265.149 138.252,265.149 137.478,265.103 137.037 C 265.056 136.597,265.019 137.011,265.020 137.957 M378.975 137.634 C 378.975 138.048,379.019 138.218,379.073 138.011 C 379.127 137.804,379.127 137.465,379.073 137.258 C 379.019 137.051,378.975 137.220,378.975 137.634 M285.000 138.387 C 285.003 138.860,285.047 139.028,285.098 138.761 C 285.150 138.493,285.148 138.106,285.094 137.901 C 285.040 137.695,284.998 137.914,285.000 138.387 M252.738 141.720 C 252.738 142.134,252.782 142.304,252.836 142.097 C 252.891 141.890,252.891 141.551,252.836 141.344 C 252.782 141.137,252.738 141.306,252.738 141.720 M307.075 143.076 C 307.171 143.171,307.820 143.218,308.517 143.181 L 309.785 143.113 308.343 143.008 C 307.550 142.950,306.980 142.981,307.075 143.076 M317.634 143.011 L 316.237 143.152 317.568 143.189 C 318.300 143.209,318.959 143.129,319.032 143.011 C 319.105 142.892,319.135 142.812,319.099 142.833 C 319.062 142.853,318.403 142.933,317.634 143.011 M103.179 143.170 C 103.804 143.213,104.772 143.213,105.330 143.169 C 105.888 143.124,105.376 143.089,104.194 143.089 C 103.011 143.090,102.554 143.126,103.179 143.170 M118.656 143.171 C 120.223 143.208,122.788 143.208,124.355 143.171 C 125.922 143.135,124.640 143.105,121.505 143.105 C 118.371 143.105,117.089 143.135,118.656 143.171 M253.710 143.166 C 254.094 143.214,254.723 143.214,255.108 143.166 C 255.492 143.119,255.177 143.080,254.409 143.080 C 253.640 143.080,253.325 143.119,253.710 143.166 M262.961 143.167 C 263.347 143.214,263.928 143.213,264.251 143.164 C 264.574 143.115,264.258 143.076,263.548 143.077 C 262.839 143.079,262.574 143.119,262.961 143.167 M285.538 143.166 C 285.922 143.214,286.551 143.214,286.935 143.166 C 287.320 143.119,287.005 143.080,286.237 143.080 C 285.468 143.080,285.153 143.119,285.538 143.166 M295.434 143.167 C 295.820 143.214,296.401 143.213,296.724 143.164 C 297.047 143.115,296.731 143.076,296.022 143.077 C 295.312 143.079,295.047 143.119,295.434 143.167 M336.286 143.166 C 336.667 143.213,337.345 143.214,337.791 143.168 C 338.237 143.121,337.925 143.082,337.097 143.081 C 336.269 143.080,335.904 143.118,336.286 143.166 M346.613 143.166 C 346.997 143.214,347.626 143.214,348.011 143.166 C 348.395 143.119,348.081 143.080,347.312 143.080 C 346.543 143.080,346.228 143.119,346.613 143.166 M379.520 143.167 C 379.907 143.214,380.487 143.213,380.810 143.164 C 381.133 143.115,380.817 143.076,380.108 143.077 C 379.398 143.079,379.133 143.119,379.520 143.167 M388.871 143.165 C 389.196 143.214,389.728 143.214,390.054 143.165 C 390.379 143.116,390.113 143.075,389.462 143.075 C 388.812 143.075,388.546 143.116,388.871 143.165 " stroke="none" fill="#4a6185" fill-rule="evenodd"></path><path id="path3" d="M126.720 75.214 C 127.755 75.253,129.449 75.253,130.484 75.214 C 131.519 75.174,130.672 75.142,128.602 75.142 C 126.532 75.142,125.685 75.174,126.720 75.214 M105.430 75.425 C 105.874 75.472,106.599 75.472,107.043 75.425 C 107.487 75.379,107.124 75.341,106.237 75.341 C 105.349 75.341,104.987 75.379,105.430 75.425 M117.581 75.424 C 117.965 75.472,118.594 75.472,118.978 75.424 C 119.363 75.377,119.048 75.338,118.280 75.338 C 117.511 75.338,117.196 75.377,117.581 75.424 M256.183 75.423 C 256.508 75.472,257.040 75.472,257.366 75.423 C 257.691 75.374,257.425 75.333,256.774 75.333 C 256.124 75.333,255.858 75.374,256.183 75.423 M266.078 75.423 C 266.405 75.473,266.889 75.471,267.153 75.420 C 267.418 75.369,267.151 75.329,266.559 75.330 C 265.968 75.332,265.751 75.374,266.078 75.423 M310.269 75.424 C 310.653 75.472,311.282 75.472,311.667 75.424 C 312.051 75.377,311.737 75.338,310.968 75.338 C 310.199 75.338,309.884 75.377,310.269 75.424 M319.409 75.423 C 319.734 75.472,320.266 75.472,320.591 75.423 C 320.917 75.374,320.651 75.333,320.000 75.333 C 319.349 75.333,319.083 75.374,319.409 75.423 M119.090 86.177 C 119.476 86.225,120.057 86.224,120.380 86.175 C 120.703 86.126,120.387 86.087,119.677 86.088 C 118.968 86.089,118.703 86.129,119.090 86.177 M254.911 90.538 C 254.911 91.425,254.949 91.788,254.995 91.344 C 255.042 90.901,255.042 90.175,254.995 89.731 C 254.949 89.288,254.911 89.651,254.911 90.538 M116.618 90.323 C 116.618 90.855,116.660 91.073,116.711 90.806 C 116.762 90.540,116.762 90.105,116.711 89.839 C 116.660 89.573,116.618 89.790,116.618 90.323 M187.049 91.341 C 187.555 91.386,188.329 91.385,188.769 91.339 C 189.210 91.293,188.796 91.256,187.849 91.257 C 186.903 91.257,186.543 91.295,187.049 91.341 M232.103 91.341 C 232.669 91.386,233.540 91.385,234.039 91.340 C 234.538 91.295,234.075 91.258,233.011 91.259 C 231.946 91.260,231.538 91.297,232.103 91.341 M374.362 91.342 C 374.987 91.385,375.955 91.385,376.513 91.341 C 377.070 91.296,376.559 91.261,375.376 91.261 C 374.194 91.262,373.737 91.298,374.362 91.342 M116.188 101.505 C 116.188 102.038,116.230 102.255,116.281 101.989 C 116.332 101.723,116.332 101.288,116.281 101.022 C 116.230 100.755,116.188 100.973,116.188 101.505 M115.973 107.097 C 115.973 107.629,116.014 107.847,116.066 107.581 C 116.117 107.315,116.117 106.879,116.066 106.613 C 116.014 106.347,115.973 106.565,115.973 107.097 M308.441 109.570 C 308.444 110.043,308.488 110.211,308.539 109.944 C 308.591 109.676,308.589 109.289,308.535 109.084 C 308.481 108.878,308.439 109.097,308.441 109.570 M319.835 110.968 C 319.835 111.382,319.879 111.551,319.933 111.344 C 319.987 111.137,319.987 110.798,319.933 110.591 C 319.879 110.384,319.835 110.554,319.835 110.968 M308.226 114.731 C 308.229 115.204,308.273 115.373,308.324 115.105 C 308.376 114.838,308.374 114.450,308.320 114.245 C 308.266 114.039,308.224 114.258,308.226 114.731 M103.276 115.484 C 103.276 115.898,103.320 116.067,103.374 115.860 C 103.428 115.653,103.428 115.315,103.374 115.108 C 103.320 114.901,103.276 115.070,103.276 115.484 M298.329 116.989 C 298.329 117.403,298.374 117.573,298.428 117.366 C 298.482 117.159,298.482 116.820,298.428 116.613 C 298.374 116.406,298.329 116.575,298.329 116.989 M163.951 118.710 C 163.951 119.952,163.986 120.460,164.030 119.839 C 164.073 119.218,164.073 118.202,164.030 117.581 C 163.986 116.960,163.951 117.468,163.951 118.710 M176.179 119.140 C 176.179 119.554,176.223 119.723,176.277 119.516 C 176.331 119.309,176.331 118.970,176.277 118.763 C 176.223 118.556,176.179 118.726,176.179 119.140 M103.061 120.860 C 103.061 121.274,103.105 121.444,103.159 121.237 C 103.213 121.030,103.213 120.691,103.159 120.484 C 103.105 120.277,103.061 120.446,103.061 120.860 M230.645 124.301 C 231.107 124.774,231.534 125.161,231.593 125.161 C 231.652 125.161,231.322 124.774,230.860 124.301 C 230.398 123.828,229.972 123.441,229.913 123.441 C 229.854 123.441,230.183 123.828,230.645 124.301 M391.233 124.731 C 391.233 125.145,391.277 125.315,391.331 125.108 C 391.385 124.901,391.385 124.562,391.331 124.355 C 391.277 124.148,391.233 124.317,391.233 124.731 M307.796 125.054 C 307.799 125.527,307.843 125.695,307.894 125.428 C 307.945 125.160,307.944 124.773,307.890 124.567 C 307.836 124.362,307.794 124.581,307.796 125.054 M319.425 127.419 C 319.426 128.247,319.465 128.560,319.512 128.113 C 319.558 127.667,319.558 126.990,319.510 126.608 C 319.463 126.226,319.424 126.591,319.425 127.419 M297.899 127.097 C 297.899 127.511,297.944 127.680,297.998 127.473 C 298.052 127.266,298.052 126.927,297.998 126.720 C 297.944 126.513,297.899 126.683,297.899 127.097 M245.450 130.430 C 245.451 131.376,245.489 131.737,245.534 131.231 C 245.580 130.725,245.579 129.951,245.533 129.510 C 245.486 129.070,245.449 129.484,245.450 130.430 M115.104 131.183 C 115.104 131.597,115.148 131.766,115.202 131.559 C 115.256 131.352,115.256 131.013,115.202 130.806 C 115.148 130.599,115.104 130.769,115.104 131.183 M297.689 131.505 C 297.691 131.978,297.735 132.147,297.787 131.879 C 297.838 131.612,297.836 131.225,297.782 131.019 C 297.728 130.813,297.686 131.032,297.689 131.505 M265.228 132.151 C 265.229 132.860,265.269 133.125,265.317 132.738 C 265.365 132.352,265.364 131.771,265.315 131.448 C 265.266 131.125,265.227 131.441,265.228 132.151 M116.183 132.191 C 116.390 132.245,116.728 132.245,116.935 132.191 C 117.142 132.137,116.973 132.093,116.559 132.093 C 116.145 132.093,115.976 132.137,116.183 132.191 M285.216 134.946 C 285.218 135.419,285.262 135.588,285.313 135.320 C 285.365 135.053,285.363 134.665,285.309 134.460 C 285.255 134.254,285.213 134.473,285.216 134.946 M319.229 138.817 C 319.229 140.946,319.261 141.788,319.300 140.688 C 319.339 139.588,319.339 137.846,319.300 136.817 C 319.260 135.788,319.228 136.688,319.229 138.817 M390.831 140.538 C 390.832 141.720,390.868 142.177,390.911 141.552 C 390.955 140.927,390.955 139.959,390.910 139.401 C 390.866 138.844,390.831 139.355,390.831 140.538 M101.990 139.892 C 101.992 140.366,102.036 140.534,102.088 140.266 C 102.139 139.999,102.137 139.612,102.083 139.406 C 102.029 139.200,101.987 139.419,101.990 139.892 M265.020 141.183 C 265.021 142.129,265.059 142.489,265.104 141.984 C 265.149 141.478,265.149 140.704,265.103 140.263 C 265.056 139.823,265.019 140.237,265.020 141.183 M108.668 143.171 C 110.065 143.209,112.290 143.209,113.614 143.171 C 114.938 143.134,113.796 143.103,111.075 143.103 C 108.355 143.103,107.272 143.134,108.668 143.171 M257.376 143.171 C 258.357 143.211,259.906 143.211,260.817 143.170 C 261.728 143.130,260.925 143.098,259.032 143.098 C 257.140 143.098,256.394 143.131,257.376 143.171 M289.301 143.171 C 290.336 143.210,292.030 143.210,293.065 143.171 C 294.099 143.131,293.253 143.099,291.183 143.099 C 289.113 143.099,288.266 143.131,289.301 143.171 M311.354 143.171 C 312.336 143.211,313.884 143.211,314.795 143.170 C 315.706 143.130,314.903 143.098,313.011 143.098 C 311.118 143.098,310.373 143.131,311.354 143.171 M340.258 143.171 C 341.287 143.210,343.029 143.210,344.129 143.171 C 345.229 143.132,344.387 143.100,342.258 143.100 C 340.129 143.099,339.229 143.131,340.258 143.171 M383.075 143.171 C 384.116 143.211,385.761 143.210,386.731 143.171 C 387.701 143.131,386.849 143.099,384.839 143.099 C 382.828 143.099,382.034 143.132,383.075 143.171 " stroke="none" fill="#6f829c" fill-rule="evenodd"></path><path id="path4" d="M104.153 86.774 C 104.154 87.484,104.194 87.748,104.242 87.362 C 104.290 86.975,104.289 86.395,104.240 86.071 C 104.191 85.748,104.151 86.065,104.153 86.774 M266.932 90.108 C 266.932 90.522,266.976 90.691,267.030 90.484 C 267.084 90.277,267.084 89.938,267.030 89.731 C 266.976 89.524,266.932 89.694,266.932 90.108 M308.886 91.398 C 308.886 92.167,308.925 92.481,308.973 92.097 C 309.020 91.712,309.020 91.083,308.973 90.699 C 308.925 90.315,308.886 90.629,308.886 91.398 M103.935 94.624 C 103.935 95.274,103.976 95.540,104.025 95.215 C 104.074 94.890,104.074 94.358,104.025 94.032 C 103.976 93.707,103.935 93.973,103.935 94.624 M254.690 100.323 C 254.692 101.032,254.732 101.297,254.780 100.910 C 254.827 100.524,254.826 99.943,254.777 99.620 C 254.728 99.297,254.689 99.613,254.690 100.323 M115.538 120.108 C 115.540 120.581,115.585 120.749,115.636 120.481 C 115.687 120.214,115.685 119.827,115.632 119.621 C 115.578 119.416,115.536 119.634,115.538 120.108 M391.026 131.613 C 391.026 132.145,391.068 132.363,391.120 132.097 C 391.171 131.831,391.171 131.395,391.120 131.129 C 391.068 130.863,391.026 131.081,391.026 131.613 M186.183 144.457 C 186.567 144.504,187.196 144.504,187.581 144.457 C 187.965 144.409,187.651 144.370,186.882 144.370 C 186.113 144.370,185.798 144.409,186.183 144.457 M228.337 144.457 C 228.724 144.505,229.304 144.504,229.628 144.455 C 229.951 144.406,229.634 144.367,228.925 144.368 C 228.215 144.369,227.951 144.409,228.337 144.457 M364.888 144.456 C 365.269 144.504,365.947 144.505,366.393 144.458 C 366.839 144.411,366.527 144.373,365.699 144.372 C 364.871 144.371,364.506 144.409,364.888 144.456 " stroke="none" fill="#7c8ca4" fill-rule="evenodd"></path><path id="path5" d="M122.522 75.209 C 122.904 75.256,123.581 75.257,124.027 75.211 C 124.474 75.164,124.161 75.125,123.333 75.124 C 122.505 75.123,122.140 75.161,122.522 75.209 M132.527 75.202 C 132.734 75.256,133.073 75.256,133.280 75.202 C 133.487 75.148,133.317 75.104,132.903 75.104 C 132.489 75.104,132.320 75.148,132.527 75.202 M110.161 75.429 C 111.433 75.467,113.513 75.467,114.785 75.429 C 116.056 75.391,115.016 75.360,112.473 75.360 C 109.930 75.360,108.890 75.391,110.161 75.429 M255.144 75.559 C 255.083 75.719,255.063 76.517,255.100 77.333 L 255.166 78.817 255.271 77.043 C 255.376 75.271,255.354 75.012,255.144 75.559 M259.839 75.429 C 260.874 75.468,262.567 75.468,263.602 75.429 C 264.637 75.390,263.790 75.357,261.720 75.357 C 259.651 75.357,258.804 75.390,259.839 75.429 M313.935 75.429 C 314.916 75.469,316.465 75.469,317.376 75.428 C 318.287 75.388,317.484 75.356,315.591 75.356 C 313.699 75.356,312.954 75.389,313.935 75.429 M309.121 79.462 C 309.121 81.591,309.154 82.433,309.193 81.333 C 309.232 80.233,309.232 78.491,309.192 77.462 C 309.153 76.433,309.121 77.333,309.121 79.462 M321.340 79.785 C 321.340 80.199,321.384 80.368,321.439 80.161 C 321.493 79.954,321.493 79.616,321.439 79.409 C 321.384 79.202,321.340 79.371,321.340 79.785 M148.602 80.282 C 148.602 80.319,148.917 80.634,149.301 80.981 L 150.000 81.613 149.368 80.914 C 148.780 80.262,148.602 80.116,148.602 80.282 M254.926 85.484 C 254.926 87.376,254.959 88.122,254.999 87.140 C 255.039 86.159,255.039 84.611,254.998 83.699 C 254.958 82.788,254.925 83.591,254.926 85.484 M104.157 84.194 C 104.158 85.022,104.196 85.334,104.243 84.888 C 104.290 84.441,104.289 83.764,104.241 83.382 C 104.194 83.001,104.156 83.366,104.157 84.194 M321.125 83.656 C 321.125 84.070,321.169 84.239,321.224 84.032 C 321.278 83.825,321.278 83.487,321.224 83.280 C 321.169 83.073,321.125 83.242,321.125 83.656 M121.882 86.180 C 122.503 86.223,123.519 86.223,124.140 86.180 C 124.761 86.137,124.253 86.101,123.011 86.101 C 121.769 86.101,121.261 86.137,121.882 86.180 M128.333 86.173 C 128.599 86.225,129.035 86.225,129.301 86.173 C 129.567 86.122,129.349 86.080,128.817 86.080 C 128.285 86.080,128.067 86.122,128.333 86.173 M117.043 86.385 C 117.250 86.439,117.589 86.439,117.796 86.385 C 118.003 86.331,117.833 86.286,117.419 86.286 C 117.005 86.286,116.836 86.331,117.043 86.385 M130.916 86.389 C 131.184 86.440,131.571 86.438,131.777 86.384 C 131.982 86.330,131.763 86.288,131.290 86.291 C 130.817 86.293,130.649 86.337,130.916 86.389 M320.927 87.849 C 320.928 88.559,320.968 88.824,321.016 88.437 C 321.064 88.050,321.063 87.470,321.014 87.147 C 320.965 86.824,320.926 87.140,320.927 87.849 M308.891 88.495 C 308.892 89.441,308.930 89.801,308.975 89.295 C 309.020 88.790,309.020 88.015,308.974 87.575 C 308.927 87.135,308.890 87.548,308.891 88.495 M139.346 89.731 C 139.873 90.293,140.333 90.753,140.367 90.753 C 140.529 90.753,140.358 90.560,139.409 89.668 L 138.387 88.710 139.346 89.731 M320.714 91.613 C 320.714 92.382,320.753 92.696,320.801 92.312 C 320.848 91.927,320.848 91.298,320.801 90.914 C 320.753 90.530,320.714 90.844,320.714 91.613 M103.942 92.151 C 103.942 92.978,103.981 93.291,104.028 92.845 C 104.074 92.398,104.074 91.721,104.026 91.339 C 103.979 90.958,103.941 91.323,103.942 92.151 M266.936 91.505 C 266.938 91.978,266.982 92.147,267.034 91.879 C 267.085 91.612,267.083 91.225,267.029 91.019 C 266.976 90.813,266.934 91.032,266.936 91.505 M281.566 91.126 C 282.131 91.171,283.002 91.170,283.501 91.125 C 284.000 91.080,283.538 91.043,282.473 91.044 C 281.409 91.045,281.000 91.082,281.566 91.126 M116.621 92.151 C 116.622 92.742,116.664 92.958,116.713 92.631 C 116.763 92.305,116.762 91.821,116.711 91.556 C 116.659 91.292,116.619 91.559,116.621 92.151 M230.161 91.331 C 230.368 91.385,230.707 91.385,230.914 91.331 C 231.121 91.277,230.952 91.233,230.538 91.233 C 230.124 91.233,229.954 91.277,230.161 91.331 M235.430 91.335 C 235.696 91.386,236.132 91.386,236.398 91.335 C 236.664 91.283,236.446 91.241,235.914 91.241 C 235.382 91.241,235.164 91.283,235.430 91.335 M371.774 91.335 C 372.040 91.386,372.476 91.386,372.742 91.335 C 373.008 91.283,372.790 91.241,372.258 91.241 C 371.726 91.241,371.508 91.283,371.774 91.335 M377.903 91.331 C 378.110 91.385,378.449 91.385,378.656 91.331 C 378.863 91.277,378.694 91.233,378.280 91.233 C 377.866 91.233,377.696 91.277,377.903 91.331 M237.583 91.550 C 237.851 91.601,238.238 91.599,238.443 91.546 C 238.649 91.492,238.430 91.450,237.957 91.452 C 237.484 91.454,237.316 91.499,237.583 91.550 M369.731 91.546 C 369.938 91.600,370.277 91.600,370.484 91.546 C 370.691 91.492,370.522 91.448,370.108 91.448 C 369.694 91.448,369.524 91.492,369.731 91.546 M254.711 95.699 C 254.711 97.651,254.744 98.449,254.784 97.473 C 254.824 96.497,254.824 94.901,254.784 93.925 C 254.744 92.949,254.711 93.747,254.711 95.699 M266.739 95.269 C 266.739 96.156,266.777 96.519,266.823 96.075 C 266.870 95.632,266.870 94.906,266.823 94.462 C 266.777 94.019,266.739 94.382,266.739 95.269 M220.849 95.215 L 220.108 96.022 220.914 95.280 C 221.358 94.873,221.720 94.510,221.720 94.474 C 221.720 94.310,221.538 94.464,220.849 95.215 M320.502 96.559 C 320.502 97.446,320.540 97.809,320.587 97.366 C 320.633 96.922,320.633 96.196,320.587 95.753 C 320.540 95.309,320.502 95.672,320.502 96.559 M308.687 99.032 C 308.687 100.688,308.721 101.337,308.762 100.474 C 308.803 99.612,308.803 98.257,308.761 97.464 C 308.720 96.670,308.687 97.376,308.687 99.032 M203.647 97.258 C 204.174 97.820,204.634 98.280,204.668 98.280 C 204.830 98.280,204.659 98.086,203.710 97.195 L 202.688 96.237 203.647 97.258 M116.418 98.602 C 116.419 99.548,116.456 99.909,116.502 99.403 C 116.547 98.897,116.547 98.123,116.500 97.682 C 116.454 97.242,116.417 97.656,116.418 98.602 M356.609 98.280 C 356.609 98.694,356.653 98.863,356.707 98.656 C 356.761 98.449,356.761 98.110,356.707 97.903 C 356.653 97.696,356.609 97.866,356.609 98.280 M266.481 98.763 C 266.451 99.368,266.734 99.552,267.010 99.107 C 267.101 98.959,267.069 98.916,266.930 99.002 C 266.796 99.085,266.658 98.940,266.604 98.659 C 266.523 98.238,266.506 98.252,266.481 98.763 M103.739 101.505 C 103.739 102.984,103.773 103.589,103.815 102.849 C 103.857 102.110,103.857 100.901,103.815 100.161 C 103.773 99.422,103.739 100.027,103.739 101.505 M371.769 99.940 C 372.151 99.988,372.829 99.988,373.275 99.942 C 373.721 99.895,373.409 99.856,372.581 99.856 C 371.753 99.855,371.388 99.893,371.769 99.940 M246.071 101.720 C 246.071 102.134,246.116 102.304,246.170 102.097 C 246.224 101.890,246.224 101.551,246.170 101.344 C 246.116 101.137,246.071 101.306,246.071 101.720 M377.849 101.143 C 377.849 101.180,378.164 101.494,378.548 101.841 L 379.247 102.473 378.616 101.774 C 378.027 101.123,377.849 100.976,377.849 101.143 M320.279 102.366 C 320.279 103.016,320.320 103.282,320.369 102.957 C 320.418 102.632,320.418 102.099,320.369 101.774 C 320.320 101.449,320.279 101.715,320.279 102.366 M254.475 103.548 C 254.476 104.258,254.517 104.522,254.564 104.136 C 254.612 103.749,254.611 103.169,254.562 102.846 C 254.513 102.522,254.474 102.839,254.475 103.548 M116.204 104.301 C 116.204 105.306,116.241 105.718,116.286 105.215 C 116.332 104.712,116.332 103.890,116.286 103.387 C 116.241 102.884,116.204 103.296,116.204 104.301 M158.153 106.344 C 158.152 108.355,158.185 109.206,158.224 108.236 C 158.264 107.266,158.264 105.621,158.225 104.580 C 158.185 103.540,158.153 104.333,158.153 106.344 M144.790 105.161 C 144.790 105.694,144.832 105.911,144.883 105.645 C 144.934 105.379,144.934 104.944,144.883 104.677 C 144.832 104.411,144.790 104.629,144.790 105.161 M180.634 105.108 L 179.892 105.914 180.699 105.173 C 181.450 104.483,181.604 104.301,181.440 104.301 C 181.404 104.301,181.041 104.664,180.634 105.108 M229.521 106.022 C 229.521 106.554,229.563 106.772,229.614 106.505 C 229.665 106.239,229.665 105.804,229.614 105.538 C 229.563 105.272,229.521 105.489,229.521 106.022 M298.791 107.527 C 298.791 108.887,298.826 109.444,298.869 108.763 C 298.911 108.083,298.911 106.970,298.869 106.290 C 298.826 105.610,298.791 106.167,298.791 107.527 M320.075 106.882 C 320.075 107.887,320.112 108.298,320.157 107.796 C 320.203 107.293,320.203 106.470,320.157 105.968 C 320.112 105.465,320.075 105.876,320.075 106.882 M308.462 107.097 C 308.462 108.102,308.499 108.513,308.545 108.011 C 308.590 107.508,308.590 106.685,308.545 106.183 C 308.499 105.680,308.462 106.091,308.462 107.097 M103.515 107.634 C 103.515 108.581,103.553 108.941,103.599 108.435 C 103.644 107.929,103.643 107.155,103.597 106.715 C 103.551 106.274,103.514 106.688,103.515 107.634 M144.785 108.280 C 144.788 108.753,144.832 108.921,144.883 108.653 C 144.935 108.386,144.933 107.999,144.879 107.793 C 144.825 107.588,144.783 107.806,144.785 108.280 M115.989 109.892 C 115.989 110.898,116.026 111.309,116.071 110.806 C 116.117 110.304,116.117 109.481,116.071 108.978 C 116.026 108.476,115.989 108.887,115.989 109.892 M254.248 110.000 C 254.250 110.473,254.294 110.641,254.346 110.374 C 254.397 110.106,254.395 109.719,254.341 109.514 C 254.287 109.308,254.245 109.527,254.248 110.000 M232.034 110.806 C 232.925 111.756,233.118 111.927,233.118 111.765 C 233.118 111.731,232.659 111.271,232.097 110.744 L 231.075 109.785 232.034 110.806 M308.247 112.258 C 308.247 113.263,308.284 113.675,308.330 113.172 C 308.375 112.669,308.375 111.847,308.330 111.344 C 308.284 110.841,308.247 111.253,308.247 112.258 M298.567 113.333 C 298.567 114.220,298.605 114.583,298.651 114.140 C 298.698 113.696,298.698 112.970,298.651 112.527 C 298.605 112.083,298.567 112.446,298.567 113.333 M319.844 112.688 C 319.844 113.220,319.885 113.438,319.937 113.172 C 319.988 112.906,319.988 112.470,319.937 112.204 C 319.885 111.938,319.844 112.156,319.844 112.688 M103.287 113.656 C 103.289 114.247,103.331 114.464,103.380 114.137 C 103.430 113.810,103.428 113.326,103.377 113.062 C 103.326 112.797,103.286 113.065,103.287 113.656 M115.774 115.484 C 115.774 116.489,115.811 116.901,115.856 116.398 C 115.902 115.895,115.902 115.073,115.856 114.570 C 115.811 114.067,115.774 114.478,115.774 115.484 M210.617 116.559 C 210.617 117.801,210.653 118.309,210.696 117.688 C 210.740 117.067,210.740 116.051,210.696 115.430 C 210.653 114.809,210.617 115.317,210.617 116.559 M198.144 116.774 C 198.144 118.016,198.180 118.524,198.223 117.903 C 198.267 117.282,198.267 116.266,198.223 115.645 C 198.180 115.024,198.144 115.532,198.144 116.774 M163.925 115.806 C 163.928 116.280,163.972 116.448,164.023 116.180 C 164.075 115.913,164.073 115.526,164.019 115.320 C 163.965 115.114,163.923 115.333,163.925 115.806 M223.118 117.204 C 223.821 117.914,224.444 118.495,224.503 118.495 C 224.562 118.495,224.036 117.914,223.333 117.204 C 222.631 116.495,222.008 115.914,221.949 115.914 C 221.890 115.914,222.416 116.495,223.118 117.204 M308.029 117.419 C 308.029 118.306,308.067 118.669,308.114 118.226 C 308.160 117.782,308.160 117.056,308.114 116.613 C 308.067 116.169,308.029 116.532,308.029 117.419 M176.403 117.204 C 176.403 117.737,176.445 117.954,176.496 117.688 C 176.547 117.422,176.547 116.987,176.496 116.720 C 176.445 116.454,176.403 116.672,176.403 117.204 M239.570 117.957 C 240.332 118.726,241.004 119.355,241.063 119.355 C 241.122 119.355,240.547 118.726,239.785 117.957 C 239.023 117.188,238.351 116.559,238.292 116.559 C 238.233 116.559,238.808 117.188,239.570 117.957 M319.639 118.495 C 319.639 119.263,319.678 119.578,319.725 119.194 C 319.773 118.809,319.773 118.180,319.725 117.796 C 319.678 117.411,319.639 117.726,319.639 118.495 M298.334 118.387 C 298.336 118.860,298.380 119.028,298.432 118.761 C 298.483 118.493,298.481 118.106,298.427 117.901 C 298.374 117.695,298.331 117.914,298.334 118.387 M379.732 118.387 C 379.789 118.683,379.872 118.925,379.918 118.925 C 379.963 118.925,380.000 118.683,380.000 118.387 C 380.000 118.091,379.917 117.849,379.815 117.849 C 379.713 117.849,379.676 118.091,379.732 118.387 M103.069 119.140 C 103.069 119.672,103.111 119.890,103.163 119.624 C 103.214 119.358,103.214 118.922,103.163 118.656 C 103.111 118.390,103.069 118.608,103.069 119.140 M391.663 119.355 C 391.663 119.769,391.707 119.938,391.761 119.731 C 391.815 119.524,391.815 119.185,391.761 118.978 C 391.707 118.772,391.663 118.941,391.663 119.355 M176.403 120.860 C 176.403 121.392,176.445 121.610,176.496 121.344 C 176.547 121.078,176.547 120.642,176.496 120.376 C 176.445 120.110,176.403 120.328,176.403 120.860 M253.822 120.860 C 253.822 121.392,253.864 121.610,253.915 121.344 C 253.966 121.078,253.966 120.642,253.915 120.376 C 253.864 120.110,253.822 120.328,253.822 120.860 M227.634 121.505 C 228.337 122.215,228.960 122.796,229.019 122.796 C 229.078 122.796,228.552 122.215,227.849 121.505 C 227.147 120.796,226.524 120.215,226.465 120.215 C 226.406 120.215,226.932 120.796,227.634 121.505 M115.548 121.935 C 115.548 122.586,115.589 122.852,115.638 122.527 C 115.687 122.202,115.687 121.669,115.638 121.344 C 115.589 121.019,115.548 121.285,115.548 121.935 M163.925 121.613 C 163.928 122.086,163.972 122.254,164.023 121.987 C 164.075 121.719,164.073 121.332,164.019 121.127 C 163.965 120.921,163.923 121.140,163.925 121.613 M298.119 122.903 C 298.121 123.376,298.165 123.545,298.217 123.277 C 298.268 123.010,298.266 122.622,298.212 122.417 C 298.158 122.211,298.116 122.430,298.119 122.903 M391.456 123.226 C 391.456 123.758,391.498 123.976,391.550 123.710 C 391.601 123.444,391.601 123.008,391.550 122.742 C 391.498 122.476,391.456 122.694,391.456 123.226 M285.856 123.226 C 285.856 123.640,285.901 123.809,285.955 123.602 C 286.009 123.395,286.009 123.056,285.955 122.849 C 285.901 122.642,285.856 122.812,285.856 123.226 M307.801 123.441 C 307.801 123.973,307.842 124.191,307.894 123.925 C 307.945 123.659,307.945 123.223,307.894 122.957 C 307.842 122.691,307.801 122.909,307.801 123.441 M265.641 123.871 C 265.641 124.285,265.686 124.454,265.740 124.247 C 265.794 124.040,265.794 123.702,265.740 123.495 C 265.686 123.288,265.641 123.457,265.641 123.871 M379.620 123.871 C 379.620 124.285,379.664 124.454,379.718 124.247 C 379.772 124.040,379.772 123.702,379.718 123.495 C 379.664 123.288,379.620 123.457,379.620 123.871 M363.968 125.430 L 363.118 126.344 364.032 125.494 C 364.882 124.703,365.045 124.516,364.882 124.516 C 364.847 124.516,364.436 124.927,363.968 125.430 M253.610 125.699 C 253.612 126.290,253.653 126.507,253.703 126.180 C 253.752 125.853,253.751 125.369,253.700 125.105 C 253.649 124.840,253.608 125.108,253.610 125.699 M102.846 125.591 C 102.846 126.005,102.890 126.175,102.944 125.968 C 102.998 125.761,102.998 125.422,102.944 125.215 C 102.890 125.008,102.846 125.177,102.846 125.591 M115.344 126.667 C 115.344 127.672,115.381 128.083,115.426 127.581 C 115.472 127.078,115.472 126.255,115.426 125.753 C 115.381 125.250,115.344 125.661,115.344 126.667 M391.258 127.312 C 391.258 128.317,391.295 128.728,391.340 128.226 C 391.386 127.723,391.386 126.901,391.340 126.398 C 391.295 125.895,391.258 126.306,391.258 127.312 M379.425 127.634 C 379.426 128.462,379.465 128.775,379.512 128.329 C 379.558 127.882,379.558 127.205,379.510 126.823 C 379.463 126.441,379.424 126.806,379.425 127.634 M265.453 128.925 C 265.452 129.989,265.488 130.452,265.533 129.953 C 265.579 129.454,265.579 128.583,265.535 128.017 C 265.490 127.452,265.453 127.860,265.453 128.925 M285.641 127.742 C 285.641 128.156,285.686 128.325,285.740 128.118 C 285.794 127.911,285.794 127.573,285.740 127.366 C 285.686 127.159,285.641 127.328,285.641 127.742 M297.904 128.495 C 297.906 128.968,297.950 129.136,298.002 128.868 C 298.053 128.601,298.051 128.214,297.997 128.008 C 297.943 127.803,297.901 128.022,297.904 128.495 M233.180 129.140 C 233.181 129.731,233.223 129.948,233.273 129.621 C 233.322 129.294,233.321 128.810,233.270 128.545 C 233.219 128.281,233.178 128.548,233.180 129.140 M253.383 129.247 C 253.383 129.661,253.427 129.831,253.482 129.624 C 253.536 129.417,253.536 129.078,253.482 128.871 C 253.427 128.664,253.383 128.833,253.383 129.247 M319.429 130.430 C 319.429 131.376,319.467 131.737,319.513 131.231 C 319.558 130.725,319.557 129.951,319.511 129.510 C 319.465 129.070,319.428 129.484,319.429 130.430 M307.577 129.892 C 307.577 130.306,307.621 130.476,307.675 130.269 C 307.729 130.062,307.729 129.723,307.675 129.516 C 307.621 129.309,307.577 129.478,307.577 129.892 M285.441 130.753 C 285.441 131.403,285.481 131.669,285.530 131.344 C 285.580 131.019,285.580 130.487,285.530 130.161 C 285.481 129.836,285.441 130.102,285.441 130.753 M193.537 131.129 L 192.796 131.935 193.602 131.194 C 194.353 130.505,194.507 130.323,194.343 130.323 C 194.307 130.323,193.944 130.685,193.537 131.129 M379.215 132.258 C 379.215 133.263,379.252 133.675,379.297 133.172 C 379.343 132.669,379.343 131.847,379.297 131.344 C 379.252 130.841,379.215 131.253,379.215 132.258 M102.430 131.828 C 102.430 132.478,102.470 132.745,102.520 132.419 C 102.569 132.094,102.569 131.562,102.520 131.237 C 102.470 130.911,102.430 131.177,102.430 131.828 M126.505 131.976 C 126.712 132.030,127.051 132.030,127.258 131.976 C 127.465 131.922,127.296 131.878,126.882 131.878 C 126.468 131.878,126.298 131.922,126.505 131.976 M253.168 132.688 C 253.168 133.102,253.212 133.272,253.267 133.065 C 253.321 132.858,253.321 132.519,253.267 132.312 C 253.212 132.105,253.168 132.274,253.168 132.688 M297.693 133.118 C 297.693 133.651,297.735 133.868,297.786 133.602 C 297.837 133.336,297.837 132.901,297.786 132.634 C 297.735 132.368,297.693 132.586,297.693 133.118 M265.234 135.054 C 265.234 135.941,265.272 136.304,265.318 135.860 C 265.364 135.417,265.364 134.691,265.318 134.247 C 265.272 133.804,265.234 134.167,265.234 135.054 M148.387 135.161 C 147.865 135.694,147.486 136.129,147.545 136.129 C 147.604 136.129,148.080 135.694,148.602 135.161 C 149.125 134.629,149.504 134.194,149.444 134.194 C 149.385 134.194,148.909 134.629,148.387 135.161 M214.458 134.839 C 214.458 135.253,214.503 135.422,214.557 135.215 C 214.611 135.008,214.611 134.669,214.557 134.462 C 214.503 134.255,214.458 134.425,214.458 134.839 M102.215 135.484 C 102.215 136.134,102.255 136.401,102.305 136.075 C 102.354 135.750,102.354 135.218,102.305 134.892 C 102.255 134.567,102.215 134.833,102.215 135.484 M252.953 135.914 C 252.953 136.328,252.997 136.497,253.051 136.290 C 253.106 136.083,253.106 135.745,253.051 135.538 C 252.997 135.331,252.953 135.500,252.953 135.914 M297.419 139.291 C 297.360 141.444,297.387 143.130,297.478 143.038 C 297.570 142.946,297.618 141.185,297.585 139.124 L 297.526 135.376 297.419 139.291 M307.161 136.559 C 307.161 137.210,307.202 137.476,307.251 137.151 C 307.300 136.825,307.300 136.293,307.251 135.968 C 307.202 135.642,307.161 135.909,307.161 136.559 M252.750 139.677 C 252.751 140.269,252.793 140.485,252.842 140.158 C 252.892 139.831,252.891 139.348,252.840 139.083 C 252.789 138.819,252.748 139.086,252.750 139.677 M306.946 139.785 C 306.946 140.435,306.986 140.702,307.036 140.376 C 307.085 140.051,307.085 139.519,307.036 139.194 C 306.986 138.868,306.946 139.134,306.946 139.785 M241.720 139.892 C 241.198 140.425,240.819 140.860,240.878 140.860 C 240.937 140.860,241.413 140.425,241.935 139.892 C 242.458 139.360,242.837 138.925,242.778 138.925 C 242.719 138.925,242.243 139.360,241.720 139.892 M101.720 142.353 C 101.720 142.701,101.797 143.033,101.891 143.091 C 101.984 143.148,102.022 142.864,101.975 142.458 C 101.869 141.554,101.720 141.493,101.720 142.353 M128.441 143.159 C 128.648 143.213,128.987 143.213,129.194 143.159 C 129.401 143.105,129.231 143.061,128.817 143.061 C 128.403 143.061,128.234 143.105,128.441 143.159 " stroke="none" fill="#848ca8" fill-rule="evenodd"></path><path id="path6" d="M254.911 93.763 C 254.911 94.651,254.949 95.013,254.995 94.570 C 255.042 94.126,255.042 93.401,254.995 92.957 C 254.949 92.513,254.911 92.876,254.911 93.763 M319.835 109.247 C 319.835 109.661,319.879 109.831,319.933 109.624 C 319.987 109.417,319.987 109.078,319.933 108.871 C 319.879 108.664,319.835 108.833,319.835 109.247 M308.007 123.441 C 308.007 123.855,308.051 124.024,308.105 123.817 C 308.159 123.610,308.159 123.272,308.105 123.065 C 308.051 122.858,308.007 123.027,308.007 123.441 " stroke="none" fill="#1d3f6f" fill-rule="evenodd"></path><path id="path7" d="M120.269 75.423 C 120.594 75.472,121.126 75.472,121.452 75.423 C 121.777 75.374,121.511 75.333,120.860 75.333 C 120.210 75.333,119.944 75.374,120.269 75.423 M255.126 80.645 C 255.126 81.532,255.164 81.895,255.210 81.452 C 255.257 81.008,255.257 80.282,255.210 79.839 C 255.164 79.395,255.126 79.758,255.126 80.645 M309.105 85.161 C 309.105 86.048,309.143 86.411,309.189 85.968 C 309.235 85.524,309.235 84.798,309.189 84.355 C 309.143 83.911,309.105 84.274,309.105 85.161 M116.618 88.387 C 116.618 88.919,116.660 89.137,116.711 88.871 C 116.762 88.605,116.762 88.169,116.711 87.903 C 116.660 87.637,116.618 87.855,116.618 88.387 M281.672 91.341 C 282.178 91.386,282.952 91.385,283.393 91.339 C 283.833 91.293,283.419 91.256,282.473 91.257 C 281.527 91.257,281.167 91.295,281.672 91.341 M104.145 92.258 C 104.145 92.790,104.187 93.008,104.238 92.742 C 104.289 92.476,104.289 92.040,104.238 91.774 C 104.187 91.508,104.145 91.726,104.145 92.258 M335.430 92.629 C 335.815 92.676,336.444 92.676,336.828 92.629 C 337.212 92.581,336.898 92.542,336.129 92.542 C 335.360 92.542,335.046 92.581,335.430 92.629 M345.972 92.629 C 346.358 92.677,346.939 92.676,347.262 92.627 C 347.585 92.578,347.269 92.539,346.559 92.540 C 345.849 92.541,345.585 92.581,345.972 92.629 M320.265 97.419 C 320.265 97.833,320.309 98.003,320.363 97.796 C 320.417 97.589,320.417 97.250,320.363 97.043 C 320.309 96.836,320.265 97.005,320.265 97.419 M116.183 97.957 C 116.186 98.430,116.230 98.598,116.281 98.331 C 116.333 98.063,116.331 97.676,116.277 97.471 C 116.223 97.265,116.181 97.484,116.183 97.957 M103.938 100.323 C 103.939 101.032,103.979 101.297,104.027 100.910 C 104.075 100.524,104.074 99.943,104.025 99.620 C 103.976 99.297,103.936 99.613,103.938 100.323 M308.661 106.237 C 308.661 106.769,308.703 106.987,308.754 106.720 C 308.805 106.454,308.805 106.019,308.754 105.753 C 308.703 105.487,308.661 105.704,308.661 106.237 M145.008 106.774 C 145.009 107.366,145.051 107.582,145.101 107.255 C 145.150 106.928,145.149 106.444,145.098 106.180 C 145.047 105.915,145.006 106.183,145.008 106.774 M157.899 109.462 C 157.899 109.876,157.944 110.046,157.998 109.839 C 158.052 109.632,158.052 109.293,157.998 109.086 C 157.944 108.879,157.899 109.048,157.899 109.462 M254.458 109.892 C 254.458 110.306,254.503 110.476,254.557 110.269 C 254.611 110.062,254.611 109.723,254.557 109.516 C 254.503 109.309,254.458 109.478,254.458 109.892 M115.757 110.753 C 115.757 111.285,115.799 111.503,115.851 111.237 C 115.902 110.970,115.902 110.535,115.851 110.269 C 115.799 110.003,115.757 110.220,115.757 110.753 M286.319 113.441 C 286.319 114.860,286.354 115.413,286.396 114.669 C 286.438 113.925,286.438 112.764,286.395 112.088 C 286.353 111.413,286.318 112.022,286.319 113.441 M103.499 112.258 C 103.499 112.790,103.541 113.008,103.593 112.742 C 103.644 112.476,103.644 112.040,103.593 111.774 C 103.541 111.508,103.499 111.726,103.499 112.258 M391.878 112.473 C 391.878 112.887,391.922 113.056,391.976 112.849 C 392.030 112.642,392.030 112.304,391.976 112.097 C 391.922 111.890,391.878 112.059,391.878 112.473 M234.839 113.616 C 234.839 113.653,235.153 113.967,235.538 114.315 L 236.237 114.946 235.605 114.247 C 235.016 113.596,234.839 113.450,234.839 113.616 M254.252 114.624 C 254.252 115.156,254.294 115.374,254.345 115.108 C 254.397 114.841,254.397 114.406,254.345 114.140 C 254.294 113.874,254.252 114.091,254.252 114.624 M103.284 117.419 C 103.284 117.952,103.326 118.169,103.378 117.903 C 103.429 117.637,103.429 117.202,103.378 116.935 C 103.326 116.669,103.284 116.887,103.284 117.419 M254.028 118.065 C 254.028 118.478,254.073 118.648,254.127 118.441 C 254.181 118.234,254.181 117.895,254.127 117.688 C 254.073 117.481,254.028 117.651,254.028 118.065 M298.119 120.108 C 298.121 120.581,298.165 120.749,298.217 120.481 C 298.268 120.214,298.266 119.827,298.212 119.621 C 298.158 119.416,298.116 119.634,298.119 120.108 M319.427 121.290 C 319.427 122.177,319.465 122.540,319.511 122.097 C 319.558 121.653,319.558 120.927,319.511 120.484 C 319.465 120.040,319.427 120.403,319.427 121.290 M103.061 122.581 C 103.061 122.995,103.105 123.164,103.159 122.957 C 103.213 122.750,103.213 122.411,103.159 122.204 C 103.105 121.997,103.061 122.167,103.061 122.581 M391.233 123.441 C 391.233 123.855,391.277 124.024,391.331 123.817 C 391.385 123.610,391.385 123.272,391.331 123.065 C 391.277 122.858,391.233 123.027,391.233 123.441 M115.323 123.763 C 115.325 124.237,115.369 124.405,115.421 124.137 C 115.472 123.870,115.470 123.483,115.417 123.277 C 115.363 123.071,115.321 123.290,115.323 123.763 M297.904 124.194 C 297.906 124.667,297.950 124.835,298.002 124.567 C 298.053 124.300,298.051 123.913,297.997 123.707 C 297.943 123.502,297.901 123.720,297.904 124.194 M307.801 126.882 C 307.801 127.414,307.842 127.632,307.894 127.366 C 307.945 127.099,307.945 126.664,307.894 126.398 C 307.842 126.132,307.801 126.349,307.801 126.882 M265.216 128.065 C 265.218 128.538,265.262 128.706,265.313 128.438 C 265.365 128.171,265.363 127.784,265.309 127.578 C 265.255 127.373,265.213 127.591,265.216 128.065 M297.684 128.602 C 297.684 129.016,297.729 129.185,297.783 128.978 C 297.837 128.772,297.837 128.433,297.783 128.226 C 297.729 128.019,297.684 128.188,297.684 128.602 M350.389 129.785 C 350.390 130.495,350.431 130.759,350.478 130.372 C 350.526 129.986,350.525 129.405,350.476 129.082 C 350.427 128.759,350.388 129.075,350.389 129.785 M319.212 130.538 C 319.212 131.425,319.250 131.788,319.296 131.344 C 319.343 130.901,319.343 130.175,319.296 129.731 C 319.250 129.288,319.212 129.651,319.212 130.538 M120.806 132.410 C 121.073 132.461,121.508 132.461,121.774 132.410 C 122.040 132.359,121.823 132.317,121.290 132.317 C 120.758 132.317,120.540 132.359,120.806 132.410 " stroke="none" fill="#2c4474" fill-rule="evenodd"></path><path id="path8" d="M122.737 75.424 C 123.119 75.472,123.796 75.472,124.243 75.426 C 124.689 75.379,124.376 75.340,123.548 75.339 C 122.720 75.338,122.355 75.377,122.737 75.424 M132.527 75.417 C 132.734 75.471,133.073 75.471,133.280 75.417 C 133.487 75.363,133.317 75.319,132.903 75.319 C 132.489 75.319,132.320 75.363,132.527 75.417 M109.934 75.644 C 111.199 75.682,113.328 75.682,114.666 75.645 C 116.003 75.607,114.968 75.576,112.366 75.576 C 109.763 75.575,108.669 75.606,109.934 75.644 M259.731 75.644 C 260.825 75.683,262.616 75.683,263.710 75.644 C 264.804 75.605,263.909 75.573,261.720 75.573 C 259.532 75.573,258.637 75.605,259.731 75.644 M313.828 75.644 C 314.869 75.684,316.514 75.683,317.484 75.644 C 318.454 75.604,317.602 75.572,315.591 75.572 C 313.581 75.572,312.787 75.605,313.828 75.644 M321.265 76.176 C 321.364 76.773,321.394 76.804,321.462 76.373 C 321.506 76.093,321.453 75.776,321.345 75.667 C 321.225 75.548,321.194 75.749,321.265 76.176 M321.140 79.140 C 321.140 79.790,321.180 80.056,321.229 79.731 C 321.279 79.406,321.279 78.874,321.229 78.548 C 321.180 78.223,321.140 78.489,321.140 79.140 M267.373 79.892 C 267.375 80.484,267.417 80.700,267.466 80.373 C 267.516 80.046,267.514 79.563,267.463 79.298 C 267.412 79.034,267.372 79.301,267.373 79.892 M255.127 83.763 C 255.128 84.710,255.166 85.070,255.212 84.564 C 255.257 84.058,255.256 83.284,255.210 82.844 C 255.164 82.403,255.127 82.817,255.127 83.763 M104.370 84.086 C 104.370 84.855,104.409 85.169,104.457 84.785 C 104.504 84.401,104.504 83.772,104.457 83.387 C 104.409 83.003,104.370 83.317,104.370 84.086 M125.748 85.962 C 126.130 86.009,126.807 86.010,127.253 85.963 C 127.699 85.917,127.387 85.878,126.559 85.877 C 125.731 85.876,125.366 85.914,125.748 85.962 M309.105 88.387 C 309.105 89.274,309.143 89.637,309.189 89.194 C 309.235 88.750,309.235 88.024,309.189 87.581 C 309.143 87.137,309.105 87.500,309.105 88.387 M116.406 90.430 C 116.407 91.022,116.449 91.238,116.498 90.911 C 116.548 90.584,116.547 90.100,116.495 89.836 C 116.444 89.571,116.404 89.839,116.406 90.430 M266.502 95.699 C 266.502 96.113,266.546 96.282,266.600 96.075 C 266.654 95.868,266.654 95.530,266.600 95.323 C 266.546 95.116,266.502 95.285,266.502 95.699 M116.188 96.129 C 116.188 96.661,116.230 96.879,116.281 96.613 C 116.332 96.347,116.332 95.911,116.281 95.645 C 116.230 95.379,116.188 95.597,116.188 96.129 M308.888 97.742 C 308.889 98.570,308.928 98.882,308.974 98.436 C 309.021 97.990,309.020 97.312,308.972 96.931 C 308.925 96.549,308.887 96.914,308.888 97.742 M245.646 97.742 C 245.648 98.215,245.692 98.383,245.743 98.116 C 245.795 97.848,245.793 97.461,245.739 97.256 C 245.685 97.050,245.643 97.269,245.646 97.742 M245.875 101.075 C 245.875 101.844,245.914 102.159,245.962 101.774 C 246.010 101.390,246.010 100.761,245.962 100.376 C 245.914 99.992,245.875 100.306,245.875 101.075 M103.940 102.796 C 103.940 103.565,103.979 103.879,104.027 103.495 C 104.074 103.110,104.074 102.481,104.027 102.097 C 103.979 101.712,103.940 102.027,103.940 102.796 M320.054 102.473 C 320.057 102.946,320.101 103.114,320.152 102.847 C 320.204 102.579,320.202 102.192,320.148 101.987 C 320.094 101.781,320.052 102.000,320.054 102.473 M115.973 103.226 C 115.973 103.758,116.014 103.976,116.066 103.710 C 116.117 103.444,116.117 103.008,116.066 102.742 C 116.014 102.476,115.973 102.694,115.973 103.226 M392.123 105.161 C 392.123 106.403,392.158 106.911,392.202 106.290 C 392.245 105.669,392.245 104.653,392.202 104.032 C 392.158 103.411,392.123 103.919,392.123 105.161 M157.932 106.344 C 157.932 107.763,157.967 108.316,158.009 107.572 C 158.051 106.828,158.051 105.667,158.008 104.992 C 157.966 104.316,157.931 104.925,157.932 106.344 M145.000 104.839 C 145.003 105.312,145.047 105.480,145.098 105.213 C 145.150 104.945,145.148 104.558,145.094 104.352 C 145.040 104.147,144.998 104.366,145.000 104.839 M254.678 105.484 C 254.680 105.957,254.724 106.125,254.776 105.858 C 254.827 105.590,254.825 105.203,254.771 104.997 C 254.718 104.792,254.676 105.011,254.678 105.484 M298.575 107.634 C 298.576 108.935,298.611 109.440,298.654 108.756 C 298.697 108.071,298.696 107.007,298.653 106.390 C 298.610 105.773,298.575 106.333,298.575 107.634 M319.844 107.742 C 319.844 108.274,319.885 108.492,319.937 108.226 C 319.988 107.960,319.988 107.524,319.937 107.258 C 319.885 106.992,319.844 107.210,319.844 107.742 M308.661 107.957 C 308.661 108.489,308.703 108.707,308.754 108.441 C 308.805 108.175,308.805 107.739,308.754 107.473 C 308.703 107.207,308.661 107.425,308.661 107.957 M145.000 108.710 C 145.003 109.183,145.047 109.351,145.098 109.084 C 145.150 108.816,145.148 108.429,145.094 108.223 C 145.040 108.018,144.998 108.237,145.000 108.710 M115.757 109.032 C 115.757 109.565,115.799 109.782,115.851 109.516 C 115.902 109.250,115.902 108.815,115.851 108.548 C 115.799 108.282,115.757 108.500,115.757 109.032 M391.897 110.323 C 391.897 111.091,391.936 111.406,391.984 111.022 C 392.031 110.637,392.031 110.008,391.984 109.624 C 391.936 109.239,391.897 109.554,391.897 110.323 M319.628 112.688 C 319.628 113.220,319.670 113.438,319.722 113.172 C 319.773 112.906,319.773 112.470,319.722 112.204 C 319.670 111.938,319.628 112.156,319.628 112.688 M308.441 113.226 C 308.444 113.699,308.488 113.867,308.539 113.600 C 308.591 113.332,308.589 112.945,308.535 112.739 C 308.481 112.534,308.439 112.753,308.441 113.226 M103.499 113.978 C 103.499 114.511,103.541 114.728,103.593 114.462 C 103.644 114.196,103.644 113.761,103.593 113.495 C 103.541 113.228,103.499 113.446,103.499 113.978 M391.663 113.763 C 391.663 114.177,391.707 114.347,391.761 114.140 C 391.815 113.933,391.815 113.594,391.761 113.387 C 391.707 113.180,391.663 113.349,391.663 113.763 M210.401 116.667 C 210.402 117.849,210.438 118.306,210.481 117.681 C 210.525 117.056,210.524 116.088,210.480 115.530 C 210.436 114.973,210.401 115.484,210.401 116.667 M254.248 116.237 C 254.250 116.710,254.294 116.878,254.346 116.610 C 254.397 116.343,254.395 115.956,254.341 115.750 C 254.287 115.545,254.245 115.763,254.248 116.237 M198.334 116.667 C 198.336 117.140,198.380 117.308,198.432 117.041 C 198.483 116.773,198.481 116.386,198.427 116.180 C 198.374 115.975,198.331 116.194,198.334 116.667 M286.312 117.849 C 286.312 118.855,286.349 119.266,286.394 118.763 C 286.439 118.261,286.439 117.438,286.394 116.935 C 286.349 116.433,286.312 116.844,286.312 117.849 M319.427 118.280 C 319.427 119.167,319.465 119.530,319.511 119.086 C 319.558 118.642,319.558 117.917,319.511 117.473 C 319.465 117.030,319.427 117.392,319.427 118.280 M298.126 118.387 C 298.128 118.978,298.169 119.195,298.219 118.868 C 298.268 118.541,298.267 118.057,298.216 117.793 C 298.165 117.528,298.124 117.796,298.126 118.387 M379.997 118.881 L 380.102 120.323 380.170 119.055 C 380.208 118.357,380.161 117.709,380.065 117.613 C 379.970 117.517,379.940 118.088,379.997 118.881 M103.300 119.892 C 103.300 120.839,103.338 121.199,103.384 120.693 C 103.429 120.187,103.428 119.413,103.382 118.973 C 103.336 118.532,103.299 118.946,103.300 119.892 M254.037 120.860 C 254.037 121.392,254.079 121.610,254.130 121.344 C 254.182 121.078,254.182 120.642,254.130 120.376 C 254.079 120.110,254.037 120.328,254.037 120.860 M115.330 122.043 C 115.332 122.634,115.374 122.851,115.423 122.524 C 115.473 122.197,115.471 121.713,115.420 121.449 C 115.369 121.184,115.329 121.452,115.330 122.043 M286.071 121.720 C 286.071 122.134,286.116 122.304,286.170 122.097 C 286.224 121.890,286.224 121.551,286.170 121.344 C 286.116 121.137,286.071 121.306,286.071 121.720 M297.904 122.688 C 297.906 123.161,297.950 123.330,298.002 123.062 C 298.053 122.795,298.051 122.407,297.997 122.202 C 297.943 121.996,297.901 122.215,297.904 122.688 M230.744 124.140 C 231.271 124.702,231.731 125.161,231.765 125.161 C 231.927 125.161,231.756 124.968,230.806 124.077 L 229.785 123.118 230.744 124.140 M103.081 124.839 C 103.082 125.667,103.121 125.979,103.168 125.533 C 103.214 125.087,103.213 124.409,103.166 124.027 C 103.118 123.646,103.080 124.011,103.081 124.839 M253.818 124.409 C 253.820 124.882,253.864 125.050,253.916 124.782 C 253.967 124.515,253.965 124.128,253.911 123.922 C 253.857 123.717,253.815 123.935,253.818 124.409 M308.016 124.946 C 308.016 125.478,308.058 125.696,308.109 125.430 C 308.160 125.164,308.160 124.728,308.109 124.462 C 308.058 124.196,308.016 124.414,308.016 124.946 M265.211 126.452 C 265.211 126.866,265.255 127.035,265.310 126.828 C 265.364 126.621,265.364 126.282,265.310 126.075 C 265.255 125.868,265.211 126.038,265.211 126.452 M319.212 127.527 C 319.212 128.414,319.250 128.777,319.296 128.333 C 319.343 127.890,319.343 127.164,319.296 126.720 C 319.250 126.277,319.212 126.640,319.212 127.527 M379.620 126.882 C 379.620 127.296,379.664 127.465,379.718 127.258 C 379.772 127.051,379.772 126.712,379.718 126.505 C 379.664 126.298,379.620 126.468,379.620 126.882 M297.689 127.204 C 297.691 127.677,297.735 127.846,297.787 127.578 C 297.838 127.311,297.836 126.924,297.782 126.718 C 297.728 126.512,297.686 126.731,297.689 127.204 M115.115 127.634 C 115.117 128.226,115.159 128.442,115.208 128.115 C 115.258 127.788,115.256 127.305,115.205 127.040 C 115.154 126.776,115.114 127.043,115.115 127.634 M391.026 127.957 C 391.026 128.489,391.068 128.707,391.120 128.441 C 391.171 128.175,391.171 127.739,391.120 127.473 C 391.068 127.207,391.026 127.425,391.026 127.957 M307.811 129.247 C 307.811 130.016,307.850 130.331,307.898 129.946 C 307.945 129.562,307.945 128.933,307.898 128.548 C 307.850 128.164,307.811 128.478,307.811 129.247 M117.903 132.415 C 118.347 132.461,119.073 132.461,119.516 132.415 C 119.960 132.368,119.597 132.330,118.710 132.330 C 117.823 132.330,117.460 132.368,117.903 132.415 M122.849 132.412 C 123.175 132.461,123.707 132.461,124.032 132.412 C 124.358 132.363,124.091 132.323,123.441 132.323 C 122.790 132.323,122.524 132.363,122.849 132.412 M265.017 134.731 C 265.018 135.559,265.057 135.871,265.103 135.425 C 265.150 134.979,265.149 134.302,265.101 133.920 C 265.054 133.538,265.016 133.903,265.017 134.731 M390.825 136.559 C 390.825 137.446,390.863 137.809,390.909 137.366 C 390.956 136.922,390.956 136.196,390.909 135.753 C 390.863 135.309,390.825 135.672,390.825 136.559 M354.301 140.645 C 354.763 141.118,355.189 141.505,355.249 141.505 C 355.308 141.505,354.978 141.118,354.516 140.645 C 354.054 140.172,353.628 139.785,353.569 139.785 C 353.509 139.785,353.839 140.172,354.301 140.645 M284.781 142.366 C 284.781 142.780,284.825 142.949,284.879 142.742 C 284.934 142.535,284.934 142.196,284.879 141.989 C 284.825 141.782,284.781 141.952,284.781 142.366 M185.546 144.245 C 186.290 144.288,187.451 144.287,188.127 144.245 C 188.802 144.202,188.194 144.168,186.774 144.168 C 185.355 144.169,184.802 144.203,185.546 144.245 M227.473 144.245 C 228.212 144.287,229.422 144.287,230.161 144.245 C 230.901 144.203,230.296 144.169,228.817 144.169 C 227.339 144.169,226.734 144.203,227.473 144.245 M364.355 144.245 C 365.153 144.287,366.460 144.287,367.258 144.245 C 368.056 144.204,367.403 144.170,365.806 144.170 C 364.210 144.170,363.556 144.204,364.355 144.245 " stroke="none" fill="#113061" fill-rule="evenodd"></path></g></svg>